<svg width="132" height="124" viewBox="0 0 132 124" fill="none" xmlns="http://www.w3.org/2000/svg">
<path d="M81.2659 73.3831H58.8668H50.8096C47.5884 73.3831 44.9768 76.1044 44.9768 79.4608V81.2601V107.019H87.1016V81.2601V79.4608C87.1001 76.1044 84.4885 73.3831 81.2659 73.3831Z" fill="#999999"/>
<path d="M122.062 37.7983C122.062 43.329 117.758 47.8137 112.45 47.8137C107.142 47.8137 102.838 43.329 102.838 37.7983L95.5078 25.3977H108.643L122.062 37.7983Z" fill="#999999"/>
<path d="M47.9805 25.3989L40.6504 37.7995C40.6504 43.3303 44.9544 47.815 50.2623 47.815C55.5702 47.815 59.8741 43.3303 59.8741 37.7995V25.3989H47.9805Z" fill="#999999"/>
<path d="M84.096 25.3989L91.4261 37.7995C91.4261 43.3303 87.1222 47.815 81.8143 47.815C76.5064 47.815 72.2024 43.3303 72.2024 37.7995V25.3989H84.096Z" fill="#999999"/>
<path d="M10.0149 37.7983C10.0149 43.329 14.3189 47.8137 19.6268 47.8137C24.9347 47.8137 29.2386 43.329 29.2386 37.7983L36.5687 25.3977H23.4331L10.0149 37.7983Z" fill="#999999"/>
<path d="M15.6454 108.514C14.8538 108.514 14.2113 107.846 14.2113 107.019V54.6882C14.2113 53.8633 14.8538 53.1938 15.6454 53.1938C16.4371 53.1938 17.0796 53.8633 17.0796 54.6882V107.019C17.0796 107.846 16.4385 108.514 15.6454 108.514Z" fill="#725201"/>
<path d="M116.431 108.513C115.638 108.513 114.997 107.845 114.997 107.019V54.6849C114.997 53.86 115.638 53.1905 116.431 53.1905C117.224 53.1905 117.865 53.86 117.865 54.6849V107.019C117.865 107.845 117.223 108.513 116.431 108.513Z" fill="#725201"/>
<path d="M129.142 122.843H37.8048C37.0132 122.843 36.3707 122.175 36.3707 121.349C36.3707 120.523 37.0132 119.855 37.8048 119.855H127.708V112.529C127.708 110.316 125.98 108.514 123.854 108.514H8.222C6.09655 108.514 4.36836 110.316 4.36836 112.529V119.855H18.1982C18.9898 119.855 19.6323 120.523 19.6323 121.349C19.6323 122.175 18.9898 122.843 18.1982 122.843H2.93418C2.14251 122.843 1.5 122.175 1.5 121.349V112.529C1.5 108.667 4.51608 105.525 8.222 105.525H123.856C127.562 105.525 130.578 108.667 130.578 112.529V121.349C130.576 122.175 129.935 122.843 129.142 122.843Z" fill="#725201"/>
<path d="M81.8145 56.4963C72.3245 56.4963 64.6043 48.4519 64.6043 38.5634V18.2112C64.6043 17.3863 65.2468 16.7168 66.0385 16.7168H85.5591C86.0568 16.7168 86.5186 16.9858 86.781 17.4281L98.8124 37.7804C98.95 38.015 99.0246 38.287 99.0246 38.5634C99.0246 48.4519 91.3044 56.4963 81.8145 56.4963ZM67.4727 19.7056V38.5634C67.4727 46.8036 73.9064 53.5075 81.8145 53.5075C89.5906 53.5075 95.9397 47.0277 96.1505 38.9774L84.7588 19.7056H67.4727Z" fill="#725201"/>
<path d="M113.366 56.4966C104.014 56.4966 96.3811 48.6853 96.1616 38.9956L84.3382 18.996C84.0672 18.5343 84.0543 17.9559 84.3081 17.4837C84.562 17.0115 85.041 16.7186 85.5602 16.7186H107.12C107.47 16.7186 107.809 16.8531 108.071 17.0952L130.093 37.4474C130.401 37.7284 130.576 38.1363 130.576 38.5637C130.576 48.4522 122.856 56.4966 113.366 56.4966ZM88.1259 19.7059L98.8106 37.7792C98.9497 38.0153 99.0246 38.287 99.0246 38.5634C99.0246 46.8036 105.458 53.5078 113.366 53.5078C121.062 53.5078 127.362 47.158 127.694 39.2228L106.574 19.7059H88.1259Z" fill="#725201"/>
<path d="M50.2622 56.4963C40.7722 56.4963 33.052 48.4519 33.052 38.5634C33.052 38.287 33.1251 38.015 33.2643 37.7804L45.2956 17.4281C45.5566 16.9873 46.0184 16.7168 46.5175 16.7168H66.0385C66.8301 16.7168 67.4723 17.3863 67.4723 18.2112L67.4727 38.5634C67.4727 48.4519 59.7521 56.4963 50.2622 56.4963ZM35.9261 38.9774C36.1369 47.0262 42.4875 53.5075 50.2622 53.5075C58.1702 53.5075 64.6043 46.8036 64.6043 38.5634L64.604 19.7056H47.3192L35.9261 38.9774Z" fill="#725201"/>
<path d="M18.7102 56.4963C9.22019 56.4963 1.5 48.4519 1.5 38.5634C1.5 38.136 1.6764 37.7281 1.98188 37.4456L24.0052 17.0934C24.2676 16.8498 24.6061 16.7168 24.9575 16.7168H46.5175C47.0367 16.7168 47.5157 17.0097 47.7695 17.4819C48.0234 17.9541 48.0105 18.534 47.7394 18.9942L35.916 38.9938C35.6952 48.685 28.0625 56.4963 18.7102 56.4963ZM4.3827 39.2225C4.714 47.1578 11.0144 53.5075 18.7102 53.5075C26.6182 53.5075 33.052 46.8036 33.052 38.5634C33.052 38.287 33.1251 38.015 33.2643 37.7804L43.9489 19.7071H25.501L4.3827 39.2225Z" fill="#725201"/>
<path d="M129.142 40.0581H2.93418C2.14251 40.0581 1.5 39.3884 1.5 38.5634C1.5 37.7385 2.14251 37.0693 2.93418 37.0693H129.142C129.935 37.0693 130.576 37.7388 130.576 38.5637C130.576 39.3886 129.935 40.0581 129.142 40.0581Z" fill="#725201"/>
<path d="M107.351 19.7056H24.9574C24.1658 19.7056 23.5232 19.0361 23.5232 18.2112V7.81315C23.5232 3.96955 26.5236 0.843262 30.2123 0.843262H102.096C105.784 0.843262 108.785 3.96955 108.785 7.81315V18.2112C108.785 19.0361 108.143 19.7056 107.351 19.7056ZM26.3916 16.7168H105.917V7.81315C105.917 5.61788 104.203 3.83207 102.096 3.83207H30.2123C28.1055 3.83207 26.3916 5.61788 26.3916 7.81315V16.7168Z" fill="#725201"/>
<path d="M94.2718 108.513C93.4786 108.513 92.8376 107.845 92.8376 107.019V71.9887C92.8376 69.4616 90.8641 67.4053 88.4389 67.4053H67.4727V77.3312C67.4727 78.1576 66.8301 78.8256 66.0385 78.8256C65.2468 78.8256 64.6043 78.1576 64.6043 77.3312V65.9109C64.6043 65.0845 65.2468 64.4165 66.0385 64.4165H88.4375C92.4446 64.4165 95.7045 67.8133 95.7045 71.9887V107.019C95.7059 107.845 95.0634 108.513 94.2718 108.513Z" fill="#725201"/>
<path d="M66.0385 108.513C65.2468 108.513 64.6043 107.845 64.6043 107.019V89.7675C64.6043 88.9411 65.2468 88.2731 66.0385 88.2731C66.8301 88.2731 67.4727 88.9411 67.4727 89.7675V107.019C67.4727 107.845 66.8301 108.513 66.0385 108.513Z" fill="#725201"/>
<path d="M73.764 94.5977C72.9709 94.5977 72.3298 93.9297 72.3298 93.1033V89.8485C72.3298 89.0221 72.9709 88.3541 73.764 88.3541C74.5571 88.3541 75.1982 89.0221 75.1982 89.8485V93.1033C75.1982 93.9297 74.5556 94.5977 73.764 94.5977Z" fill="#725201"/>
<path d="M37.8051 108.513C37.0134 108.513 36.3709 107.845 36.3709 107.019V71.9887C36.3709 67.8133 39.6308 64.4165 43.6379 64.4165H66.0385C66.8301 64.4165 67.4725 65.0845 67.4725 65.9109L67.4727 77.3312C67.4727 78.1576 66.8301 78.8256 66.0385 78.8256C65.2468 78.8256 64.6043 78.1576 64.6043 77.3312L64.6042 67.4053H43.6379C41.2127 67.4053 39.2392 69.4616 39.2392 71.9887V107.019C39.2392 107.845 38.5967 108.513 37.8051 108.513Z" fill="#725201"/>
<path d="M66.0385 108.513C65.2468 108.513 64.6043 107.845 64.6043 107.019V89.7675C64.6043 88.9411 65.2468 88.2731 66.0385 88.2731C66.8301 88.2731 67.4727 88.9411 67.4727 89.7675V107.019C67.4727 107.845 66.8301 108.513 66.0385 108.513Z" fill="#725201"/>
<path d="M58.3139 94.5977C57.5222 94.5977 56.8797 93.9297 56.8797 93.1033V89.8485C56.8797 89.0221 57.5222 88.3541 58.3139 88.3541C59.1055 88.3541 59.7481 89.0221 59.7481 89.8485V93.1033C59.7481 93.9297 59.1055 94.5977 58.3139 94.5977Z" fill="#725201"/>
<path d="M64.6043 38.5634C64.6043 48.4519 72.3245 56.4963 81.8145 56.4963C91.3044 56.4963 99.0246 48.4519 99.0246 38.5634M64.6043 38.5634V18.2112C64.6043 17.3863 65.2468 16.7168 66.0385 16.7168M64.6043 38.5634C64.6043 46.8036 58.1702 53.5075 50.2622 53.5075C42.4875 53.5075 36.1369 47.0262 35.9261 38.9774L47.3192 19.7056H64.604L64.6043 38.5634ZM66.0385 16.7168H85.5591C86.0568 16.7168 86.5186 16.9858 86.781 17.4281L98.8124 37.7804C98.95 38.015 99.0246 38.287 99.0246 38.5634M66.0385 16.7168H46.5175M66.0385 16.7168C66.8301 16.7168 67.4723 17.3863 67.4723 18.2112L67.4727 38.5634M99.0246 38.5634C99.0246 38.287 98.9497 38.0153 98.8106 37.7792L88.1259 19.7059H106.574L127.694 39.2228C127.362 47.158 121.062 53.5078 113.366 53.5078C105.458 53.5078 99.0246 46.8036 99.0246 38.5634ZM67.4727 38.5634V19.7056H84.7588L96.1505 38.9774C95.9397 47.0277 89.5906 53.5075 81.8145 53.5075C73.9064 53.5075 67.4727 46.8036 67.4727 38.5634ZM67.4727 38.5634C67.4727 48.4519 59.7521 56.4963 50.2622 56.4963C40.7722 56.4963 33.052 48.4519 33.052 38.5634M130.576 38.5637C130.576 38.1363 130.401 37.7284 130.093 37.4474L108.071 17.0952C107.809 16.8531 107.47 16.7186 107.12 16.7186H85.5602C85.041 16.7186 84.562 17.0115 84.3081 17.4837C84.0543 17.9559 84.0672 18.5343 84.3382 18.996L96.1616 38.9956C96.3811 48.6853 104.014 56.4966 113.366 56.4966C122.856 56.4966 130.576 48.4522 130.576 38.5637ZM130.576 38.5637C130.576 37.7388 129.935 37.0693 129.142 37.0693H2.93418C2.14251 37.0693 1.5 37.7385 1.5 38.5634M130.576 38.5637C130.576 39.3886 129.935 40.0581 129.142 40.0581H2.93418C2.14251 40.0581 1.5 39.3884 1.5 38.5634M33.052 38.5634C33.052 38.287 33.1251 38.015 33.2643 37.7804M33.052 38.5634C33.052 46.8036 26.6182 53.5075 18.7102 53.5075C11.0144 53.5075 4.714 47.1578 4.3827 39.2225L25.501 19.7071H43.9489L33.2643 37.7804M33.2643 37.7804L45.2956 17.4281C45.5566 16.9873 46.0184 16.7168 46.5175 16.7168M46.5175 16.7168H24.9575C24.6061 16.7168 24.2676 16.8498 24.0052 17.0934L1.98188 37.4456C1.6764 37.7281 1.5 38.136 1.5 38.5634M46.5175 16.7168C47.0367 16.7168 47.5157 17.0097 47.7695 17.4819C48.0234 17.9541 48.0105 18.534 47.7394 18.9942L35.916 38.9938C35.6952 48.685 28.0625 56.4963 18.7102 56.4963C9.22019 56.4963 1.5 48.4519 1.5 38.5634M67.4727 77.3312V67.4053H88.4389C90.8641 67.4053 92.8376 69.4616 92.8376 71.9887V107.019C92.8376 107.845 93.4786 108.513 94.2718 108.513C95.0634 108.513 95.7059 107.845 95.7045 107.019V71.9887C95.7045 67.8133 92.4446 64.4165 88.4375 64.4165H66.0385M67.4727 77.3312C67.4727 78.1576 66.8301 78.8256 66.0385 78.8256C65.2468 78.8256 64.6043 78.1576 64.6043 77.3312M67.4727 77.3312L67.4725 65.9109C67.4725 65.0845 66.8301 64.4165 66.0385 64.4165M64.6043 77.3312V65.9109C64.6043 65.0845 65.2468 64.4165 66.0385 64.4165M64.6043 77.3312L64.6042 67.4053H43.6379C41.2127 67.4053 39.2392 69.4616 39.2392 71.9887V107.019C39.2392 107.845 38.5967 108.513 37.8051 108.513C37.0134 108.513 36.3709 107.845 36.3709 107.019V71.9887C36.3709 67.8133 39.6308 64.4165 43.6379 64.4165H66.0385M15.6454 108.514C14.8538 108.514 14.2113 107.846 14.2113 107.019V54.6882C14.2113 53.8633 14.8538 53.1938 15.6454 53.1938C16.4371 53.1938 17.0796 53.8633 17.0796 54.6882V107.019C17.0796 107.846 16.4385 108.514 15.6454 108.514ZM116.431 108.513C115.638 108.513 114.997 107.845 114.997 107.019V54.6849C114.997 53.86 115.638 53.1905 116.431 53.1905C117.224 53.1905 117.865 53.86 117.865 54.6849V107.019C117.865 107.845 117.223 108.513 116.431 108.513ZM129.142 122.843H37.8048C37.0132 122.843 36.3707 122.175 36.3707 121.349C36.3707 120.523 37.0132 119.855 37.8048 119.855H127.708V112.529C127.708 110.316 125.98 108.514 123.854 108.514H8.222C6.09655 108.514 4.36836 110.316 4.36836 112.529V119.855H18.1982C18.9898 119.855 19.6323 120.523 19.6323 121.349C19.6323 122.175 18.9898 122.843 18.1982 122.843H2.93418C2.14251 122.843 1.5 122.175 1.5 121.349V112.529C1.5 108.667 4.51608 105.525 8.222 105.525H123.856C127.562 105.525 130.578 108.667 130.578 112.529V121.349C130.576 122.175 129.935 122.843 129.142 122.843ZM107.351 19.7056H24.9574C24.1658 19.7056 23.5232 19.0361 23.5232 18.2112V7.81315C23.5232 3.96955 26.5236 0.843262 30.2123 0.843262H102.096C105.784 0.843262 108.785 3.96955 108.785 7.81315V18.2112C108.785 19.0361 108.143 19.7056 107.351 19.7056ZM26.3916 16.7168H105.917V7.81315C105.917 5.61788 104.203 3.83207 102.096 3.83207H30.2123C28.1055 3.83207 26.3916 5.61788 26.3916 7.81315V16.7168ZM66.0385 108.513C65.2468 108.513 64.6043 107.845 64.6043 107.019V89.7675C64.6043 88.9411 65.2468 88.2731 66.0385 88.2731C66.8301 88.2731 67.4727 88.9411 67.4727 89.7675V107.019C67.4727 107.845 66.8301 108.513 66.0385 108.513ZM73.764 94.5977C72.9709 94.5977 72.3298 93.9297 72.3298 93.1033V89.8485C72.3298 89.0221 72.9709 88.3541 73.764 88.3541C74.5571 88.3541 75.1982 89.0221 75.1982 89.8485V93.1033C75.1982 93.9297 74.5556 94.5977 73.764 94.5977ZM58.3139 94.5977C57.5222 94.5977 56.8797 93.9297 56.8797 93.1033V89.8485C56.8797 89.0221 57.5222 88.3541 58.3139 88.3541C59.1055 88.3541 59.7481 89.0221 59.7481 89.8485V93.1033C59.7481 93.9297 59.1055 94.5977 58.3139 94.5977Z" stroke="#725201" stroke-width="1.5"/>
</svg>
