<svg width="130" height="123" viewBox="0 0 130 123" fill="none" xmlns="http://www.w3.org/2000/svg">
<path d="M80.2659 73.3831H57.8668H49.8096C46.5884 73.3831 43.9768 76.1044 43.9768 79.4608V81.2601V107.019H86.1016V81.2601V79.4608C86.1001 76.1044 83.4885 73.3831 80.2659 73.3831Z" fill="#999999"/>
<path d="M121.062 37.7983C121.062 43.329 116.758 47.8137 111.45 47.8137C106.142 47.8137 101.838 43.329 101.838 37.7983L94.5078 25.3977H107.643L121.062 37.7983Z" fill="#999999"/>
<path d="M46.9805 25.3989L39.6504 37.7995C39.6504 43.3303 43.9544 47.815 49.2623 47.815C54.5702 47.815 58.8741 43.3303 58.8741 37.7995V25.3989H46.9805Z" fill="#999999"/>
<path d="M83.096 25.3989L90.4261 37.7995C90.4261 43.3303 86.1222 47.815 80.8143 47.815C75.5064 47.815 71.2024 43.3303 71.2024 37.7995V25.3989H83.096Z" fill="#999999"/>
<path d="M9.01489 37.7983C9.01489 43.329 13.3189 47.8137 18.6268 47.8137C23.9347 47.8137 28.2386 43.329 28.2386 37.7983L35.5687 25.3977H22.4331L9.01489 37.7983Z" fill="#999999"/>
<path d="M14.6455 108.514C13.8538 108.514 13.2113 107.846 13.2113 107.019V54.6882C13.2113 53.8633 13.8538 53.1938 14.6455 53.1938C15.4372 53.1938 16.0797 53.8633 16.0797 54.6882V107.019C16.0797 107.846 15.4386 108.514 14.6455 108.514Z" fill="#725201"/>
<path d="M115.431 108.513C114.638 108.513 113.997 107.845 113.997 107.019V54.6848C113.997 53.8599 114.638 53.1904 115.431 53.1904C116.224 53.1904 116.865 53.8599 116.865 54.6848V107.019C116.865 107.845 116.223 108.513 115.431 108.513Z" fill="#725201"/>
<path d="M128.142 122.843H36.8048C36.0132 122.843 35.3707 122.175 35.3707 121.349C35.3707 120.522 36.0132 119.854 36.8048 119.854H126.708V112.529C126.708 110.316 124.98 108.513 122.854 108.513H7.222C5.09655 108.513 3.36836 110.316 3.36836 112.529V119.854H17.1982C17.9898 119.854 18.6323 120.522 18.6323 121.349C18.6323 122.175 17.9898 122.843 17.1982 122.843H1.93418C1.14251 122.843 0.5 122.175 0.5 121.349V112.529C0.5 108.667 3.51608 105.525 7.222 105.525H122.856C126.562 105.525 129.578 108.667 129.578 112.529V121.349C129.576 122.175 128.935 122.843 128.142 122.843Z" fill="#725201"/>
<path d="M80.8144 56.4963C71.3244 56.4963 63.6042 48.4519 63.6042 38.5635V18.2112C63.6042 17.3863 64.2468 16.7168 65.0384 16.7168H84.5591C85.0567 16.7168 85.5185 16.9858 85.781 17.4281L97.8123 37.7804C97.95 38.015 98.0246 38.287 98.0246 38.5635C98.0246 48.4519 90.3044 56.4963 80.8144 56.4963ZM66.4726 19.7056V38.5635C66.4726 46.8036 72.9063 53.5075 80.8144 53.5075C88.5905 53.5075 94.9397 47.0278 95.1505 38.9774L83.7588 19.7056H66.4726Z" fill="#725201"/>
<path d="M112.366 56.4965C103.014 56.4965 95.381 48.6853 95.1616 38.9956L83.3382 18.996C83.0671 18.5342 83.0542 17.9559 83.3081 17.4836C83.5619 17.0114 84.041 16.7185 84.5601 16.7185H106.12C106.47 16.7185 106.809 16.853 107.071 17.0951L129.093 37.4474C129.401 37.7283 129.576 38.1363 129.576 38.5637C129.576 48.4521 121.856 56.4965 112.366 56.4965ZM87.1259 19.7058L97.8105 37.7791C97.9496 38.0152 98.0242 38.2872 98.0242 38.5637C98.0242 46.8038 104.458 53.5077 112.366 53.5077C120.062 53.5077 126.362 47.158 126.693 39.2227L105.574 19.7058H87.1259Z" fill="#725201"/>
<path d="M49.2622 56.4963C39.7722 56.4963 32.052 48.4519 32.052 38.5635C32.052 38.287 32.1251 38.015 32.2643 37.7804L44.2956 17.4281C44.5566 16.9873 45.0184 16.7168 45.5175 16.7168H65.0382C65.8298 16.7168 66.4723 17.3863 66.4723 18.2112V38.5635C66.4723 48.4519 58.7521 56.4963 49.2622 56.4963ZM34.9261 38.9774C35.1369 47.0263 41.4875 53.5075 49.2622 53.5075C57.1702 53.5075 63.604 46.8036 63.604 38.5635V19.7056H46.3192L34.9261 38.9774Z" fill="#725201"/>
<path d="M17.7102 56.4963C8.22019 56.4963 0.5 48.4519 0.5 38.5635C0.5 38.1361 0.676404 37.7281 0.981885 37.4456L23.0052 17.0934C23.2676 16.8498 23.6061 16.7168 23.9575 16.7168H45.5175C46.0367 16.7168 46.5157 17.0097 46.7695 17.4819C47.0234 17.9542 47.0105 18.534 46.7394 18.9943L34.916 38.9938C34.6952 48.685 27.0625 56.4963 17.7102 56.4963ZM3.3827 39.2225C3.714 47.1578 10.0144 53.5075 17.7102 53.5075C25.6182 53.5075 32.052 46.8036 32.052 38.5635C32.052 38.287 32.1251 38.015 32.2642 37.7804L42.9489 19.7071H24.501L3.3827 39.2225Z" fill="#725201"/>
<path d="M128.142 40.0581H1.93418C1.14251 40.0581 0.5 39.3886 0.5 38.5637C0.5 37.7388 1.14251 37.0693 1.93418 37.0693H128.142C128.935 37.0693 129.576 37.7388 129.576 38.5637C129.576 39.3886 128.935 40.0581 128.142 40.0581Z" fill="#725201"/>
<path d="M106.351 19.7056H23.9574C23.1657 19.7056 22.5232 19.0361 22.5232 18.2112V7.81315C22.5232 3.96955 25.5235 0.843262 29.2122 0.843262H101.096C104.783 0.843262 107.785 3.96955 107.785 7.81315V18.2112C107.785 19.0361 107.143 19.7056 106.351 19.7056ZM25.3916 16.7168H104.917V7.81315C104.917 5.61788 103.203 3.83207 101.096 3.83207H29.2122C27.1054 3.83207 25.3916 5.61788 25.3916 7.81315V16.7168Z" fill="#725201"/>
<path d="M93.2717 108.513C92.4786 108.513 91.8375 107.845 91.8375 107.019V71.9886C91.8375 69.4616 89.8641 67.4053 87.4389 67.4053H66.4726V77.3311C66.4726 78.1575 65.8301 78.8255 65.0384 78.8255C64.2468 78.8255 63.6042 78.1575 63.6042 77.3311V65.9109C63.6042 65.0845 64.2468 64.4165 65.0384 64.4165H87.4375C91.4446 64.4165 94.7044 67.8133 94.7044 71.9886V107.019C94.7059 107.845 94.0634 108.513 93.2717 108.513Z" fill="#725201"/>
<path d="M65.0384 108.513C64.2468 108.513 63.6042 107.845 63.6042 107.019V89.7676C63.6042 88.9412 64.2468 88.2732 65.0384 88.2732C65.8301 88.2732 66.4726 88.9412 66.4726 89.7676V107.019C66.4726 107.845 65.8301 108.513 65.0384 108.513Z" fill="#725201"/>
<path d="M72.764 94.5976C71.9709 94.5976 71.3298 93.9296 71.3298 93.1032V89.8484C71.3298 89.022 71.9709 88.354 72.764 88.354C73.5571 88.354 74.1982 89.022 74.1982 89.8484V93.1032C74.1982 93.9296 73.5557 94.5976 72.764 94.5976Z" fill="#725201"/>
<path d="M36.805 108.513C36.0134 108.513 35.3708 107.845 35.3708 107.019V71.9886C35.3708 67.8133 38.6307 64.4165 42.6378 64.4165H65.0383C65.83 64.4165 66.4725 65.0845 66.4725 65.9109V77.3311C66.4725 78.1575 65.83 78.8255 65.0383 78.8255C64.2466 78.8255 63.6041 78.1575 63.6041 77.3311V67.4053H42.6378C40.2126 67.4053 38.2392 69.4616 38.2392 71.9886V107.019C38.2392 107.845 37.5967 108.513 36.805 108.513Z" fill="#725201"/>
<path d="M65.0384 108.513C64.2468 108.513 63.6042 107.845 63.6042 107.019V89.7676C63.6042 88.9412 64.2468 88.2732 65.0384 88.2732C65.8301 88.2732 66.4726 88.9412 66.4726 89.7676V107.019C66.4726 107.845 65.8301 108.513 65.0384 108.513Z" fill="#725201"/>
<path d="M57.3138 94.5976C56.5222 94.5976 55.8796 93.9296 55.8796 93.1032V89.8484C55.8796 89.022 56.5222 88.354 57.3138 88.354C58.1055 88.354 58.748 89.022 58.748 89.8484V93.1032C58.748 93.9296 58.1055 94.5976 57.3138 94.5976Z" fill="#725201"/>
</svg>
