<svg width="126" height="123" viewBox="0 0 126 123" fill="none" xmlns="http://www.w3.org/2000/svg">
<g clip-path="url(#clip0_27_294)">
<path d="M125.389 82.1936C125.399 81.9243 125.352 81.6559 125.251 81.4051C125.15 81.1544 124.997 80.9267 124.801 80.7363C124.606 80.5459 124.373 80.3969 124.116 80.2987C123.859 80.2004 123.584 80.155 123.308 80.1652C122.13 80.1652 121.312 80.9804 121.253 82.219C121.227 82.7699 121.253 83.3176 121.253 84.1519C120.858 83.6424 120.685 83.4227 120.516 83.1966C103.348 60.6587 86.1824 38.1209 69.019 15.583C67.6882 13.8349 65.878 12.23 65.2126 10.2622C64.5472 8.29432 64.9908 5.94121 65.0429 3.76003C65.0723 2.52455 64.769 1.53106 63.6632 0.840088H62.1987C61.1419 1.49604 60.8027 2.43221 60.8222 3.64221C60.8581 5.89982 61.2952 8.32616 60.6037 10.3736C59.9122 12.4211 58.053 13.9941 56.6896 15.7868C55.8253 16.9299 54.9478 18.0667 53.9889 19.3213C53.529 17.9744 53.2451 16.7102 52.6319 15.5703C49.6964 10.1221 45.0973 7.08433 38.7695 7.00472C32.3862 6.92512 27.6795 9.87052 24.6558 15.3315C24.1796 16.1944 24.0035 16.2167 23.2729 15.6149C21.5205 14.1731 19.3587 13.2886 17.077 13.0797C14.7953 12.8709 12.5027 13.3476 10.5064 14.4462C8.51766 15.5149 6.90198 17.14 5.86728 19.1125C4.83259 21.085 4.42622 23.3147 4.70043 25.5146C4.75588 25.9349 4.81457 26.2406 4.35793 26.508C2.5695 27.5781 1.26828 29.2757 0.721098 31.2525C0.672172 31.4054 0.636257 31.5518 0.440552 31.5709V35.1468C0.80913 35.236 0.747224 35.5862 0.835291 35.8187C2.18892 39.4805 5.12447 41.5121 9.20167 41.5184C17.9454 41.5312 26.6879 41.5312 35.4294 41.5184H37.0799C26.2346 55.7551 15.5262 69.8165 4.68737 84.05C4.48514 82.512 5.01358 80.8021 3.09567 80.2289C1.90186 79.8659 1.13857 80.6046 0.440552 81.3848V91.154C2.26061 92.8925 3.23264 92.8034 4.78197 90.7655C6.95648 87.904 9.13752 85.0382 11.3251 82.1681C11.7915 81.5536 12.2612 80.9422 12.92 80.0856C12.92 81.9962 13.0114 83.5883 12.9005 85.1613C12.5907 89.6478 15.8361 92.485 20.2134 92.3926C29.5224 92.2271 38.838 92.3417 48.1535 92.348C48.5352 92.348 48.9429 92.2334 49.3278 92.4499C45.1756 99.0508 46.0987 105.066 51.611 110.657C49.7094 110.657 47.9709 110.635 46.2324 110.657C45.4022 110.643 44.5774 110.79 43.8064 111.091C43.0354 111.392 42.3337 111.84 41.7426 112.41C41.1515 112.979 40.6829 113.658 40.3643 114.406C40.0456 115.155 39.8834 115.958 39.8871 116.768C39.8908 117.579 40.0603 118.381 40.3858 119.126C40.7112 119.872 41.186 120.547 41.7823 121.111C42.3786 121.675 43.0843 122.117 43.858 122.411C44.6317 122.706 45.4578 122.846 46.2878 122.824C57.3778 122.85 68.4939 122.824 79.5969 122.824C80.6585 122.826 81.7024 122.56 82.627 122.05C83.8262 121.399 84.7714 120.379 85.3158 119.149C85.8602 117.919 85.9734 116.548 85.6377 115.249C85.3158 113.947 84.5578 112.788 83.4841 111.955C82.4104 111.122 81.0825 110.663 79.7111 110.651C78.1128 110.619 76.5145 110.651 74.6586 110.651C76.0546 109.291 77.118 108.062 77.8943 106.607C80.1775 102.324 79.8513 97.8695 78.7489 93.3925C78.5107 92.4372 78.6673 92.3098 79.6132 92.313C88.3971 92.3481 97.1843 92.3353 105.968 92.3321C110.378 92.3321 112.922 89.8484 112.929 85.5434C112.929 83.8239 112.929 82.1044 112.929 80.0856C113.395 80.6874 113.663 81.025 113.907 81.3593C116.432 84.6667 118.953 87.9761 121.471 91.2877C122.088 92.0965 122.864 92.5614 123.892 92.243C124.331 92.1333 124.719 91.8796 124.991 91.5244C125.262 91.1691 125.4 90.7338 125.382 90.2911C125.412 87.594 125.428 84.8938 125.389 82.1936ZM24.0688 37.4586C19.0674 37.4586 14.0661 37.4586 9.0647 37.4586C7.30661 37.4586 5.90406 36.7867 5.07231 35.2296C4.31885 33.7967 4.47212 32.3925 5.3691 31.0647C5.91848 30.3174 6.70491 29.7679 7.60662 29.5012C9.2375 28.9249 9.65503 28.0906 9.18208 26.4762C7.8415 21.8909 10.5227 17.812 15.3011 17.1656C18.3541 16.7548 21.5572 18.6462 22.7771 21.5853C22.8977 21.8782 22.9956 22.1807 23.1032 22.4768C23.2401 22.9186 23.5361 23.2971 23.9367 23.5424C24.3372 23.7876 24.8151 23.8831 25.2821 23.811C25.7579 23.795 26.2095 23.6027 26.5451 23.2733C26.8808 22.9438 27.0754 22.5019 27.0892 22.0374C27.2718 20.2479 27.6143 18.5348 28.5015 16.9108C29.8097 14.5527 31.9407 12.7307 34.5075 11.7755C37.0744 10.8202 39.907 10.7951 42.4912 11.7046C47.8013 13.6152 50.9358 19.0538 49.7942 24.3555C49.699 24.8177 49.4983 25.253 49.2071 25.6292C46.3661 29.3484 43.5153 33.0611 40.7265 36.8058C40.3025 37.3757 39.8393 37.484 39.1935 37.484C34.1476 37.449 29.1082 37.4586 24.0688 37.4586ZM29.8584 82.1617C29.7116 79.4329 29.2941 76.7486 29.9106 74.0993C30.2082 72.815 30.8707 71.6385 31.822 70.7049C34.875 67.6831 37.9573 64.6868 41.0299 61.684C41.0682 61.6183 41.1204 61.5612 41.183 61.5165C41.2456 61.4719 41.3171 61.4407 41.393 61.4251C41.4688 61.4094 41.5471 61.4097 41.6229 61.4258C41.6986 61.4419 41.77 61.4734 41.8323 61.5185L29.8584 82.1617ZM79.2153 114.714C80.4221 114.714 81.2767 115.128 81.5996 116.306C81.9649 117.628 80.9016 118.771 79.274 118.777C74.7989 118.777 70.327 118.777 65.8518 118.777H62.8022C57.3909 118.777 51.9829 118.777 46.5716 118.777C44.7809 118.777 43.7274 117.401 44.3634 115.969C44.794 115.013 45.6062 114.714 46.6467 114.717C51.448 114.736 56.246 114.717 61.0473 114.717C67.0946 114.72 73.1549 114.733 79.2153 114.714ZM65.2778 105.005C66.8977 105.432 68.6183 105.305 70.1541 104.645C70.4803 107.46 68.8494 109.6 66.1324 110.336C62.5967 111.291 59.9351 110.017 57.753 107.47C56.2134 105.671 56.5037 103.518 58.3694 102.028C58.526 101.904 58.6956 101.78 58.8521 101.668C61.0995 100.188 63.4349 98.8024 64.3384 95.8761C65.0821 97.5924 64.9581 99.1623 63.66 100.834C62.0747 102.859 63.2196 104.454 65.2778 105.005ZM74.5347 103.977C73.9834 102.652 73.6409 101.264 72.7602 100.102C71.5403 98.5095 70.5096 98.3535 68.8461 99.5985C69.5148 95.1088 67.6751 91.7749 63.9535 89.2848C63.2229 88.7976 62.4792 88.6161 61.6703 89.0333C60.8613 89.4504 60.3656 90.2082 60.5189 91.0934C61.0669 94.4719 59.5404 96.6181 56.6048 98.2611C53.9954 99.7259 52.6417 102.133 52.5602 105.454C50.7401 102.608 50.476 99.9074 51.536 97.067C51.9946 95.877 52.7009 94.7928 53.6105 93.8828C56.4449 90.9852 56.1123 87.7246 52.6711 85.3141C53.5061 84.9957 54.2792 85.1676 55.0326 85.2823C56.8951 85.5625 58.0595 84.4671 57.6975 82.6712C57.3194 81.0796 57.3575 79.4206 57.8084 77.8471C58.2346 76.5711 59.1183 75.4881 60.297 74.7972C61.4757 74.1064 62.8702 73.854 64.2242 74.0866C64.6189 74.1598 64.9973 74.163 64.8473 74.7935C63.9797 78.398 65.2224 81.4453 67.6687 84.0691C69.5833 86.1261 71.6089 88.1003 73.0408 90.5139C75.5947 94.7649 76.0612 99.2737 74.5347 103.977ZM88.9092 88.2818C85.0864 88.2818 81.2637 88.2818 77.4409 88.2818C77.1839 88.3079 76.9246 88.2619 76.6935 88.1491C76.4623 88.0363 76.269 87.8614 76.1362 87.645C74.5876 85.4069 72.8213 83.3201 70.8619 81.4135C69.9555 80.4986 69.3032 79.373 68.9668 78.1433C68.5852 76.7804 68.6994 75.5959 69.7921 74.5355C70.8848 73.4752 70.6402 71.9181 69.3322 71.3513C66.2988 70.0139 63.1577 69.3612 59.8731 70.5489C57.9125 71.2497 56.2222 72.5258 55.0343 74.202C53.8464 75.8782 53.2191 77.8723 53.2387 79.9105C53.2387 80.7607 53.118 81.0823 52.1721 81.1141C50.414 81.1714 48.881 81.9038 47.5371 82.996C45.6127 84.5626 45.8573 86.7438 48.0687 87.9252C48.1731 87.9825 48.4178 87.9443 48.3591 88.2436H31.1141L62.9261 33.4337C73.5757 51.7843 84.1275 69.9503 94.7576 88.2786L88.9092 88.2818ZM95.9971 82.1617C91.9851 75.252 87.9698 68.3369 83.9513 61.4166C84.5156 61.216 84.7407 61.6045 85.0147 61.8719C87.9155 64.6995 90.813 67.5303 93.7073 70.3642C95.2273 71.8512 96.1471 73.6312 96.2058 75.7455C96.2722 77.8864 96.2026 80.0293 95.9971 82.1617ZM108.76 85.6357C108.76 87.5845 108.033 88.2754 106.024 88.2818C104.517 88.2818 103.007 88.2117 101.509 88.3073C100.531 88.3709 100.384 87.9889 100.41 87.1673C100.472 85.2568 100.43 83.3463 100.43 81.4517C100.43 79.9424 100.41 78.433 100.43 76.9237C100.492 73.0676 99.1055 69.8356 96.2841 67.11C89.5779 60.6301 82.9305 54.0897 76.2504 47.5812C75.7315 47.0804 75.2868 46.5113 74.9293 45.8903C71.8568 40.5833 68.7733 35.2763 65.679 29.9693C65.194 29.1914 64.9567 28.2903 64.9973 27.3805C65.056 26.1928 65.0201 24.9987 64.9973 23.8078C64.9973 22.117 64.1982 21.1458 62.8804 21.1681C61.5627 21.1904 60.6689 22.1489 60.8548 23.741C61.2723 27.3551 60.1079 30.4278 58.1671 33.4433C55.6066 37.4331 53.3528 41.6139 50.9913 45.7216C50.5787 46.4483 50.0637 47.115 49.4615 47.7022C42.8369 54.1502 36.2514 60.6396 29.5974 67.059C26.7401 69.8133 25.3571 73.0644 25.3995 76.9683C25.4419 80.3435 25.3604 83.722 25.4354 87.0941C25.4615 88.129 25.1321 88.3519 24.1503 88.2977C22.6108 88.2149 21.0614 88.2977 19.5153 88.2722C17.9073 88.2531 17.0951 87.4953 17.082 85.935C17.056 82.3623 17.0821 78.7865 17.0593 75.2138C17.0593 74.5769 17.3854 74.1821 17.7116 73.7459L47.6056 34.4908C52.4286 28.1543 57.2549 21.8188 62.0845 15.4843C62.8999 14.4144 62.9 14.4144 63.7448 15.5257C78.4879 34.8815 93.2365 54.233 107.99 73.5803C108.512 74.2289 108.782 75.0362 108.754 75.8602C108.737 79.124 108.77 82.3783 108.76 85.6357Z" fill="#725201"/>
<path d="M93.6749 6.32971C95.2363 7.00889 96.68 7.92091 97.9544 9.03311C106.865 16.7994 104.778 30.7304 93.9228 35.8697C92.9247 36.3441 92.0505 36.8759 92.1125 38.1305C92.1712 39.3309 93.0486 39.7894 94.0434 40.1588C97.3583 41.4101 100.949 41.8007 104.465 41.2924C114.012 39.9582 121.661 31.969 122.212 22.8016C122.815 12.7172 116.504 4.01478 106.79 1.50243C105.838 1.25725 104.817 1.29546 103.92 0.830566H98.7958C97.165 1.40373 95.4395 1.55339 93.8478 2.23163C92.8693 2.64239 92.1353 3.18691 92.1092 4.2791C92.0832 5.37128 92.7649 5.94124 93.6749 6.32971ZM114.625 11.2143C116.703 13.8555 117.904 17.0534 118.069 20.3796C118.233 23.7059 117.353 27.0018 115.545 29.826C112.123 35.1055 105.228 38.347 99.67 37.2007C104.83 33.007 107.655 27.7213 107.661 21.1873C107.668 14.6533 104.856 9.34515 99.7092 5.1579C103.229 4.29498 110.342 5.75974 114.632 11.227L114.625 11.2143Z" fill="#725201"/>
<path d="M28.8083 100.929C27.7776 100.137 26.5903 100.36 25.6542 101.544C24.9497 102.436 24.2679 103.343 23.371 104.518C23.371 102.413 23.371 100.649 23.371 98.8852C23.371 97.3409 22.5066 96.3729 21.2215 96.4079C19.9364 96.4429 19.2187 97.3441 19.2122 98.8789C19.2122 100.643 19.2122 102.407 19.2122 104.54C18.3152 103.381 17.6531 102.506 16.9714 101.646C15.9603 100.372 14.7991 100.111 13.7488 100.923C12.6985 101.735 12.6822 102.834 13.6314 104.069C15.5189 106.549 17.4172 109.022 19.3264 111.488C20.5626 113.08 21.9619 113.08 23.2111 111.488C25.1682 109.005 27.0763 106.492 28.9844 103.98C29.8423 102.859 29.7444 101.655 28.8083 100.929Z" fill="#999999"/>
<path d="M112.032 100.872C111.014 100.153 109.902 100.385 108.979 101.534C108.261 102.426 107.573 103.34 106.872 104.244L106.64 104.123C106.64 102.264 106.663 100.404 106.64 98.5476C106.621 97.2963 105.812 96.4588 104.667 96.4079C103.522 96.3569 102.566 97.2357 102.495 98.5031C102.462 99.0953 102.495 99.6908 102.495 100.286V104.518C101.591 103.334 100.919 102.439 100.228 101.56C99.2949 100.375 98.1075 100.137 97.0768 100.923C96.1179 101.64 96.0135 102.834 96.8714 103.977C98.7827 106.49 100.707 108.993 102.645 111.485C103.897 113.077 105.29 113.106 106.523 111.523C108.467 109.038 110.39 106.535 112.293 104.015C113.187 102.811 113.076 101.608 112.032 100.872Z" fill="#999999"/>
</g>
<defs>
<clipPath id="clip0_27_294">
<rect width="124.968" height="122" fill="white" transform="translate(0.444092 0.843262)"/>
</clipPath>
</defs>
</svg>
