<svg width="127" height="123" viewBox="0 0 127 123" fill="none" xmlns="http://www.w3.org/2000/svg">
<g clip-path="url(#clip0_29_342)">
<path d="M124.396 63.4464C122.373 63.4762 120.352 63.4588 118.329 63.4464C117.583 63.4464 116.914 63.6502 116.452 64.2294C115.063 65.9693 113.656 67.7093 112.363 69.5188C111.739 70.3938 111.866 71.4129 112.54 72.2903C113.213 73.1678 114.165 73.3865 115.202 73.118C115.562 73.0119 115.896 72.8308 116.182 72.5866C116.468 72.3425 116.699 72.0408 116.86 71.7012C118.316 68.9397 120.511 67.8336 123.598 68.4028C125.09 68.6787 126.211 68.0001 126.971 66.7076V65.2162C126.4 64.2145 125.701 63.4265 124.396 63.4464Z" fill="#725201"/>
<path d="M104.238 83.8187C103.102 82.9587 101.692 83.2023 100.656 84.4774C99.6914 85.6656 98.751 86.8728 97.8346 88.099C97.6915 88.3201 97.4924 88.4994 97.2575 88.6186C97.0226 88.7378 96.7603 88.7926 96.4973 88.7776C93.44 88.7461 90.3819 88.7461 87.3229 88.7776C86.6741 88.7776 86.4081 88.5837 86.2217 87.9374C83.5124 78.5384 80.7782 69.1477 78.0191 59.7652C77.8377 59.1438 77.9669 58.9151 78.5162 58.6318C79.3142 58.2338 80.0211 57.6751 80.5927 56.9906C81.1642 56.3062 81.5878 55.5109 81.8371 54.6548C83.1718 50.2278 80.0027 46.0818 75.1805 46.0122C74.2708 45.9973 73.8756 45.7363 73.6668 44.8663C73.3088 43.3749 72.8415 41.9258 72.424 40.4593C71.8672 38.5379 70.6691 37.6978 69.128 38.1402C67.6689 38.5578 67.1196 39.9199 67.6515 41.7891C67.9564 42.8596 68.2613 43.9317 68.5662 45.0055C68.6532 45.3113 68.9192 45.6891 68.5861 45.9053C68.421 45.9934 68.2359 46.0375 68.0488 46.0336C67.8617 46.0297 67.6787 45.9778 67.5173 45.8829C67.2431 45.7028 66.9926 45.4891 66.7716 45.2466C64.3208 42.9027 61.9097 40.5239 59.4017 38.2347C58.5243 37.4343 58.4423 37.0962 59.4564 36.3083C61.3904 34.7914 62.8054 32.7112 63.5058 30.3552C64.2063 27.9992 64.1575 25.4839 63.3663 23.1568C62.5923 20.8059 61.1093 18.7524 59.1212 17.2783C57.1331 15.8043 54.7373 14.9819 52.263 14.9244C49.8277 14.8476 47.4278 15.5219 45.389 16.8559C43.3501 18.19 41.7711 20.119 40.8663 22.3813C38.9698 27.1462 39.9516 31.4513 43.3022 35.3861C42.9325 35.5618 42.579 35.7697 42.2458 36.0075C41.6617 36.5046 41.3734 36.3878 40.9608 35.7316C38.7635 32.2368 34.8014 30.7603 31.0928 32.0032C27.2997 33.2683 24.9583 36.8949 25.3087 41.1006C25.4032 42.2291 25.8059 43.3252 24.6252 44.1778C24.3766 44.3493 24.3617 44.8539 24.2971 45.2143C23.8397 47.7364 23.3915 50.2593 22.9523 52.7831C22.2265 57.0086 21.4112 61.2342 20.8271 65.5021C20.5933 67.058 20.9548 68.6448 21.8394 69.9459C22.724 71.2471 24.0667 72.1668 25.5995 72.5215C27.4762 72.9838 29.3827 73.4213 31.3165 73.4437C32.0622 73.4437 32.0895 73.737 32.0498 74.3112C31.8261 77.6966 31.614 81.0837 31.4135 84.4724C31.3691 85.0907 31.2 85.6936 30.9163 86.2447C29.1242 89.9135 27.3718 93.6047 25.5623 97.266C24.4288 99.5652 24.1305 101.914 24.9856 104.348C25.2341 105.034 25.0751 105.28 24.3791 105.173C22.3086 104.85 20.6506 105.722 18.9977 106.843C15.8857 108.944 12.6842 110.91 9.51996 112.933C6.77251 114.688 4.02506 116.443 1.2776 118.198C0.318146 118.814 -0.151641 119.706 0.0795228 120.84C0.298259 121.909 1.00915 122.58 2.06803 122.808C2.9554 123.005 3.66628 122.56 4.36972 122.112C10.2789 118.331 16.1864 114.549 22.0923 110.766C22.7424 110.336 23.5083 110.116 24.2871 110.134C35.8578 110.154 47.4284 110.134 58.999 110.164C59.5936 110.185 60.186 110.083 60.7391 109.864C61.2922 109.645 61.794 109.314 62.213 108.891C67.0972 104.184 72.0412 99.5404 76.9205 94.8301C77.2642 94.462 77.6832 94.1724 78.1491 93.981C78.615 93.7897 79.1167 93.7012 79.6199 93.7215C85.6948 93.7787 91.7697 93.7215 97.8446 93.7637C99.1545 93.7637 100.129 93.3412 100.912 92.2724C102.085 90.6716 103.355 89.1455 104.556 87.5671C105.555 86.2248 105.418 84.7036 104.238 83.8187ZM44.8831 26.6317C44.9975 22.8759 48.2512 19.7962 52.0268 19.8708C53.9073 19.9035 55.698 20.6808 57.006 22.0321C58.314 23.3835 59.0326 25.1986 59.004 27.0791C58.9859 28.0091 58.7845 28.9264 58.4114 29.7785C58.0383 30.6305 57.5007 31.4005 56.8295 32.0445C56.1583 32.6885 55.3666 33.1937 54.4998 33.5313C53.6331 33.8688 52.7082 34.032 51.7783 34.0116C47.7988 33.9047 44.7688 30.6733 44.8831 26.6317ZM38.5199 62.5342C39.5315 56.7527 40.4736 50.9586 41.5026 45.1795C42.1787 41.3715 44.8657 39.2388 49.1659 38.9306C51.5595 38.7591 53.5828 39.4004 55.3352 41.1677C58.2509 44.0983 61.3181 46.8847 64.2835 49.773C64.6673 50.1728 65.1317 50.4864 65.646 50.6929C66.1602 50.8995 66.7126 50.9943 67.2663 50.9711C69.911 50.9313 72.5557 50.9363 75.2004 50.9711C76.5725 50.9885 77.4101 51.9504 77.1069 53.1012C76.8036 54.2521 75.9312 54.4882 74.8972 54.4858C72.163 54.4858 69.4412 54.4858 66.7145 54.4858C64.0697 54.4858 61.4225 54.4634 58.7778 54.5007C58.4519 54.5158 58.1263 54.4645 57.8208 54.35C57.5153 54.2355 57.2363 54.0601 57.0006 53.8345C55.7453 52.6961 54.4454 51.5974 53.1603 50.5013C51.7261 49.2585 50.2272 49.2361 49.2355 50.4068C48.2437 51.5775 48.4674 52.9745 49.9439 54.2744C50.8437 55.0674 51.7211 55.8901 52.6781 56.6134C53.3616 57.1305 53.3243 57.4486 52.7004 57.9905C49.7898 60.5333 46.3596 61.9675 42.6311 62.7331C41.5027 62.9667 40.3468 63.0761 39.2059 63.2526C38.6168 63.3321 38.3981 63.2178 38.5199 62.5342ZM33.7748 36.5767C35.7459 36.609 37.2845 38.2446 37.282 40.3052C37.2796 42.3658 35.7037 44.0336 33.7549 44.0336C31.7664 44.0336 30.1607 42.3161 30.1905 40.2107C30.2203 38.1054 31.7788 36.5419 33.7748 36.5767ZM30.8716 68.4724C29.6288 68.2388 28.2293 68.0275 26.8647 67.7093C25.7213 67.4434 25.602 66.5361 25.7661 65.5568C26.293 62.4199 26.8274 59.2847 27.3693 56.1511C27.7546 53.914 28.1846 51.677 28.5202 49.4399C28.6544 48.5351 28.9154 48.1697 29.9146 48.4034C31.5576 48.7862 33.2304 49.0521 34.9008 49.3156C35.4924 49.4101 35.7633 49.5343 35.6465 50.2428C34.6522 55.8156 33.7127 61.3933 32.7607 66.9711C32.5892 67.9579 32.0647 68.5271 30.8716 68.4724ZM31.7515 104.912C29.7232 104.166 28.8532 101.864 29.8574 99.7591C31.6894 95.9263 33.5088 92.0835 35.4402 88.3003C36.2107 86.8089 36.3176 85.2281 36.4344 83.6273C36.5537 81.8874 36.6507 80.1723 36.765 78.318C38.9325 79.3123 41.177 79.5981 43.4116 79.9138C43.9659 79.9933 44.1573 80.217 44.12 80.8061C43.9286 83.1153 43.7944 85.4294 43.6229 87.7411C43.5791 88.0676 43.4764 88.3834 43.3196 88.6732C41.0445 93.3926 38.7618 98.1087 36.4717 102.821C35.4799 104.817 33.6306 105.613 31.7515 104.912ZM59.1407 104.912C59.0316 105.005 58.905 105.074 58.7683 105.117C58.6316 105.16 58.4878 105.175 58.3453 105.16H41.0254C40.9707 104.596 41.2939 104.236 41.4803 103.843C43.1009 100.46 44.5948 97.0025 46.4217 93.7339C48.1343 90.6716 48.8229 87.4577 48.8452 84.025C48.8452 83.3639 48.9322 82.7027 48.9521 82.0365C48.972 81.3704 49.1559 81.1516 49.837 81.5021C51.3284 82.2752 52.862 82.9935 54.3932 83.7143C54.9127 83.9629 55.2209 84.378 55.5515 84.7956C57.883 87.746 60.2269 90.6841 62.5361 93.6544C63.7367 95.198 65.0093 96.6372 67.0301 97.3829L59.1407 104.912ZM72.4041 92.2351C70.7114 93.5948 68.5613 93.2294 67.0003 91.2632C64.2711 87.8364 61.5526 84.3996 58.8449 80.9528C58.3725 80.3263 57.7572 79.8218 57.0503 79.4813C54.9301 78.4721 52.8247 77.4033 50.702 76.4314C48.45 75.4073 45.9569 75.4372 43.5881 74.9226C42.5392 74.6965 41.4579 74.6219 40.4189 74.3708C37.9333 73.7693 36.6905 71.5621 37.4859 68.7334C37.6698 68.0623 38.3086 68.291 38.7486 68.2611C42.6317 68.0389 46.4413 67.1072 49.9886 65.512C50.9953 65.0497 51.9771 64.5178 53.123 63.9361C52.9415 64.9478 52.7825 65.7954 52.6383 66.6455C52.3276 68.4774 52.7576 69.3324 54.4205 70.1254C56.8664 71.3135 59.3122 72.4992 61.7755 73.6525C62.4113 73.9452 62.9672 74.3868 63.3961 74.94C66.4833 78.8748 69.5953 82.7922 72.6924 86.7195C74.2037 88.6607 74.0993 90.8879 72.4041 92.2401V92.2351ZM80.3581 88.7925C79.2122 88.8571 78.5585 88.698 78.4367 87.3235C78.3174 85.9986 77.5394 84.8652 76.6968 83.8138C73.3395 79.5733 69.9864 75.3278 66.6374 71.0774C66.157 70.4585 65.5334 69.9654 64.8204 69.6407C62.6952 68.6464 60.5948 67.5826 58.4721 66.5983C57.873 66.3199 57.7264 66.0116 57.8532 65.3554C58.2012 63.6577 58.4994 61.9476 58.7356 60.2301C58.825 59.5863 59.0761 59.4148 59.6826 59.4222C61.7457 59.452 63.8112 59.4222 65.8743 59.4222C67.8976 59.4222 69.9209 59.4371 71.9417 59.4222C72.5184 59.4222 72.7893 59.5614 72.9658 60.1679C75.6354 69.3979 78.3265 78.6188 81.0392 87.8305C81.2529 88.5215 81.1535 88.7527 80.3656 88.7975L80.3581 88.7925Z" fill="#725201"/>
<path d="M118.194 21.1136C117.87 19.8836 117.3 18.7315 116.521 17.7261C115.741 16.7206 114.767 15.8824 113.657 15.2612C112.547 14.6401 111.323 14.2488 110.058 14.1107C108.793 13.9725 107.514 14.0903 106.296 14.4571C105.57 14.6758 105.18 14.559 104.643 14.0022C101.787 11.0194 98.3044 9.81637 94.2031 10.5223C88.8913 11.4494 84.8819 16.3238 84.9466 21.8021C85.0137 27.3873 89.11 32.1473 94.5113 32.9378C97.1858 33.328 99.8728 33.0098 102.552 33.1267C103.049 33.1267 103.547 33.1267 104.044 33.1267C106.432 33.0571 108.846 33.3752 111.205 32.8408C116.39 31.6676 119.586 26.2564 118.194 21.1136ZM113.35 24.8868C113.075 25.8261 112.503 26.6513 111.72 27.2395C110.938 27.8276 109.986 28.1471 109.008 28.1504C106.823 28.2076 104.633 28.1629 102.443 28.1629C100.338 28.1629 98.2298 28.2374 96.127 28.1479C92.4134 27.9864 89.6867 24.9464 89.9253 21.3497C90.1639 17.753 93.1243 15.0959 96.6365 15.3171C98.9382 15.4637 100.706 16.5599 101.879 18.5484C103.296 20.962 104.21 21.2155 106.512 19.7539C107.29 19.2313 108.212 18.9659 109.148 18.9954C110.085 19.0248 110.988 19.3475 111.732 19.918C112.485 20.4751 113.045 21.2531 113.335 22.1437C113.625 23.0343 113.63 23.9931 113.35 24.8868Z" fill="#999999"/>
<path d="M14.9884 26.8481C17.3902 26.8389 19.691 25.8806 21.3891 24.182C23.0873 22.4834 24.045 20.1823 24.0535 17.7805C24.0522 15.3782 23.0981 13.0744 21.4006 11.3746C19.7031 9.6747 17.4006 8.7175 14.9983 8.71289C13.8093 8.71191 12.6318 8.94542 11.5332 9.40004C10.4346 9.85466 9.43642 10.5215 8.5958 11.3623C7.75519 12.2032 7.08864 13.2015 6.63432 14.3003C6.17999 15.399 5.94682 16.5766 5.94813 17.7656C5.9481 20.1671 6.8992 22.4709 8.59338 24.173C10.2876 25.8751 12.5869 26.8369 14.9884 26.8481ZM14.9884 13.6867C16.0731 13.686 17.1137 14.1156 17.8821 14.8812C18.6505 15.6468 19.0839 16.6858 19.0872 17.7705C19.082 18.8552 18.6497 19.8941 17.8839 20.6622C17.1181 21.4304 16.0805 21.8658 14.9958 21.8743C13.9113 21.8704 12.8725 21.4373 12.1063 20.6697C11.3401 19.9022 10.9089 18.8625 10.907 17.778C10.905 17.2408 11.0092 16.7085 11.2137 16.2117C11.4181 15.7149 11.7188 15.2634 12.0983 14.8832C12.4778 14.503 12.9287 14.2016 13.4251 13.9962C13.9215 13.7909 14.4537 13.6857 14.9909 13.6867H14.9884Z" fill="#999999"/>
<path d="M14.4441 7.16412C16.184 7.60159 17.4616 6.34634 17.479 4.16395C17.4964 1.83988 16.1865 0.465328 14.4018 0.932627C13.0944 1.27813 12.4953 2.29227 12.5078 4.13662C12.5152 5.91136 13.1043 6.83104 14.4441 7.16412Z" fill="#725201"/>
<path d="M13.1291 29.3958C12.3611 30.2409 12.2368 32.724 12.9079 33.7407C13.5392 34.6951 14.454 35.0904 15.5725 34.8418C16.86 34.556 17.4641 33.5369 17.474 31.6105C17.556 30.4596 17.2851 29.2839 15.9255 28.7247C14.8666 28.2872 13.8972 28.5507 13.1291 29.3958Z" fill="#725201"/>
<path d="M3.56686 13.7711C4.23538 13.7766 4.87924 13.519 5.35957 13.054C5.83991 12.589 6.11825 11.9538 6.13453 11.2855C6.15193 9.87615 4.22556 8.16106 2.5577 8.09892C1.8918 8.08894 1.24914 8.34343 0.7706 8.80659C0.292064 9.26975 0.0167141 9.90378 0.00494357 10.5696C-0.00748461 12.0014 1.88906 13.6991 3.56686 13.7711Z" fill="#725201"/>
<path d="M26.4074 13.7711C28.0628 13.7239 29.9942 12.0138 29.9917 10.597C29.9787 9.93192 29.7048 9.29863 29.2291 8.83365C28.7534 8.36867 28.1141 8.10926 27.4489 8.11134C25.7711 8.16105 23.8522 9.85129 23.8522 11.283C23.8722 11.9482 24.1499 12.5796 24.6266 13.0438C25.1034 13.5081 25.742 13.7689 26.4074 13.7711Z" fill="#725201"/>
<path d="M3.63145 21.9439C1.89151 21.9439 0.0322464 23.5396 0.00739001 25.026C-0.000355361 25.3554 0.0585113 25.6829 0.180462 25.989C0.302413 26.295 0.484944 26.5732 0.71708 26.807C0.949215 27.0407 1.22618 27.2252 1.53136 27.3493C1.83654 27.4734 2.16363 27.5345 2.49303 27.5291C4.15343 27.5291 6.09969 25.8712 6.132 24.4419C6.13635 24.1125 6.07463 23.7854 5.95048 23.4802C5.82632 23.175 5.64225 22.8978 5.40914 22.6649C5.17604 22.4321 4.89863 22.2483 4.5933 22.1244C4.28797 22.0006 3.96091 21.9392 3.63145 21.9439Z" fill="#725201"/>
<path d="M23.8547 24.355C23.8249 25.8464 25.791 27.5416 27.5334 27.5292C28.1784 27.5299 28.7977 27.2769 29.2577 26.8249C29.7176 26.3728 29.9813 25.758 29.9917 25.1131C30.0216 23.582 28.1101 21.929 26.3229 21.9439C25.6794 21.9482 25.0627 22.2018 24.6023 22.6514C24.142 23.1011 23.874 23.7118 23.8547 24.355Z" fill="#725201"/>
<path d="M108.356 75.6113C107.712 75.608 107.092 75.8591 106.632 76.3101C106.172 76.7611 105.908 77.3755 105.898 78.0199C105.894 78.6847 106.153 79.3241 106.619 79.7986C107.084 80.2731 107.719 80.5442 108.384 80.5528C109.05 80.5371 109.682 80.2581 110.143 79.7768C110.604 79.2955 110.855 78.6512 110.842 77.9851C110.825 77.3414 110.554 76.7305 110.088 76.2858C109.623 75.8411 109 75.5986 108.356 75.6113Z" fill="#725201"/>
</g>
<defs>
<clipPath id="clip0_29_342">
<rect width="126.971" height="122" fill="white" transform="translate(0 0.843262)"/>
</clipPath>
</defs>
</svg>
