<svg width="7716" height="3000" viewBox="0 0 7716 3000" fill="none" xmlns="http://www.w3.org/2000/svg">
<path d="M299.008 2074.96C217.088 2074.96 148.821 2057.21 94.208 2021.71C40.96 1986.21 14.336 1934.33 14.336 1866.06C14.336 1821.01 26.624 1784.83 51.2 1757.52C77.1413 1728.85 110.592 1714.51 151.552 1714.51C184.32 1714.51 210.261 1723.39 229.376 1741.14C248.491 1758.89 261.461 1778 268.288 1798.48C276.48 1817.59 280.576 1829.88 280.576 1835.34C240.981 1864.02 221.184 1897.47 221.184 1935.7C221.184 1961.64 229.376 1983.48 245.76 2001.23C262.144 2018.98 284.672 2027.86 313.344 2027.86C357.035 2027.86 391.168 1998.5 415.744 1939.79C441.685 1879.72 454.656 1776.63 454.656 1630.54V469.328L266.24 440.656V395.6H860.16V440.656L671.744 469.328V1630.54C671.744 1726.12 662.187 1805.99 643.072 1870.16C625.323 1932.97 589.141 1982.8 534.528 2019.66C479.915 2056.53 401.408 2074.96 299.008 2074.96ZM1474.5 2054.48C1376.19 2054.48 1286.76 2031.95 1206.21 1986.9C1125.65 1940.47 1061.48 1875.62 1013.7 1792.34C967.275 1707.69 944.064 1611.43 944.064 1503.57C944.064 1395.71 967.275 1300.13 1013.7 1216.85C1061.48 1133.56 1125.65 1069.39 1206.21 1024.34C1286.76 977.915 1376.19 954.704 1474.5 954.704C1572.8 954.704 1662.23 977.915 1742.78 1024.34C1823.34 1069.39 1886.83 1133.56 1933.25 1216.85C1981.03 1300.13 2004.93 1395.71 2004.93 1503.57C2004.93 1611.43 1981.03 1707.69 1933.25 1792.34C1886.83 1875.62 1823.34 1940.47 1742.78 1986.9C1662.23 2031.95 1572.8 2054.48 1474.5 2054.48ZM1474.5 2009.42C1575.53 2009.42 1651.31 1972.56 1701.82 1898.83C1753.71 1825.1 1779.65 1727.48 1779.65 1605.97V1401.17C1779.65 1279.65 1753.71 1182.71 1701.82 1110.35C1651.31 1036.62 1575.53 999.76 1474.5 999.76C1373.46 999.76 1297 1036.62 1245.12 1110.35C1194.6 1182.71 1169.34 1279.65 1169.34 1401.17V1605.97C1169.34 1727.48 1194.6 1825.1 1245.12 1898.83C1297 1972.56 1373.46 2009.42 1474.5 2009.42ZM3197.92 876.88C3197.92 930.128 3178.12 975.867 3138.53 1014.1C3098.93 1052.33 3036.13 1076.9 2950.11 1087.82C2985.61 1139.71 3003.36 1210.7 3003.36 1300.82C3003.36 1407.31 2965.13 1491.28 2888.67 1552.72C2813.58 1614.16 2718.01 1644.88 2601.95 1644.88C2554.17 1644.88 2510.47 1640.78 2470.88 1632.59C2383.5 1638.05 2339.81 1672.19 2339.81 1734.99C2339.81 1770.49 2354.14 1796.43 2382.82 1812.82C2412.85 1829.2 2459.96 1837.39 2524.13 1837.39H2753.5C2864.1 1837.39 2946.02 1859.92 2999.26 1904.98C3053.88 1950.03 3081.18 2027.17 3081.18 2136.4C3081.18 2212.86 3061.39 2283.17 3021.79 2347.34C2983.56 2411.51 2927.58 2462.03 2853.86 2498.9C2780.13 2537.13 2692.06 2556.24 2589.66 2556.24C2435.38 2556.24 2321.38 2533.03 2247.65 2486.61C2175.29 2440.19 2139.1 2378.75 2139.1 2302.29C2139.1 2255.87 2156.85 2214.91 2192.35 2179.41C2227.85 2143.91 2276.32 2126.16 2337.76 2126.16C2350.05 2126.16 2375.31 2128.89 2413.54 2134.35C2371.21 2179.41 2350.05 2232.66 2350.05 2294.1C2350.05 2352.81 2370.53 2404.01 2411.49 2447.7C2452.45 2491.39 2519.35 2513.23 2612.19 2513.23C2692.75 2513.23 2764.43 2497.53 2827.23 2466.13C2891.4 2436.09 2940.55 2396.5 2974.69 2347.34C3008.82 2298.19 3025.89 2247.67 3025.89 2195.79C3025.89 2138.45 3007.46 2096.81 2970.59 2070.86C2933.73 2046.29 2868.19 2034 2773.98 2034H2524.13C2428.55 2034 2356.19 2015.57 2307.04 1978.7C2259.25 1940.47 2235.36 1884.5 2235.36 1810.77C2235.36 1761.62 2249.01 1718.61 2276.32 1681.74C2304.99 1643.51 2341.17 1618.94 2384.86 1608.02C2266.08 1557.5 2206.69 1455.1 2206.69 1300.82C2206.69 1192.95 2244.23 1108.3 2319.33 1046.86C2394.42 985.424 2488.63 954.704 2601.95 954.704C2745.31 954.704 2849.08 984.741 2913.25 1044.82C2951.48 1037.99 2980.15 1025.7 2999.26 1007.95C3018.38 988.837 3027.94 967.675 3027.94 944.464C3027.94 922.619 3021.79 906.235 3009.5 895.312C2997.22 883.024 2982.88 876.88 2966.5 876.88C2966.5 846.843 2977.42 820.901 2999.26 799.056C3022.47 775.845 3049.78 764.24 3081.18 764.24C3115.32 764.24 3143.31 774.48 3165.15 794.96C3187 815.44 3197.92 842.747 3197.92 876.88ZM2810.85 1249.62C2810.85 1166.33 2793.1 1102.16 2757.6 1057.1C2723.47 1012.05 2671.58 989.52 2601.95 989.52C2466.78 989.52 2399.2 1076.22 2399.2 1249.62V1349.97C2399.2 1430.52 2415.58 1494.01 2448.35 1540.43C2482.49 1586.85 2533.69 1610.06 2601.95 1610.06C2671.58 1610.06 2723.47 1586.85 2757.6 1540.43C2793.1 1494.01 2810.85 1430.52 2810.85 1349.97V1249.62ZM3464.48 735.568C3426.25 735.568 3393.48 722.597 3366.18 696.656C3338.87 669.349 3325.22 636.581 3325.22 598.352C3325.22 560.123 3338.19 528.037 3364.13 502.096C3391.43 476.155 3424.89 463.184 3464.48 463.184C3501.34 463.184 3532.75 476.155 3558.69 502.096C3584.63 528.037 3597.6 560.123 3597.6 598.352C3597.6 636.581 3584.63 669.349 3558.69 696.656C3532.75 722.597 3501.34 735.568 3464.48 735.568ZM3253.54 2632.02C3177.08 2632.02 3116.32 2614.27 3071.26 2578.77C3026.21 2544.63 3003.68 2498.21 3003.68 2439.5C3003.68 2402.64 3013.92 2372.6 3034.4 2349.39C3054.88 2326.18 3082.19 2314.58 3116.32 2314.58C3147.72 2314.58 3175.03 2326.18 3198.24 2349.39C3221.45 2372.6 3233.06 2399.91 3233.06 2431.31C3190.73 2443.6 3169.57 2470.22 3169.57 2511.18C3169.57 2530.3 3177.08 2547.37 3192.1 2562.38C3208.48 2578.77 3228.96 2586.96 3253.54 2586.96C3302.69 2586.96 3336.82 2563.07 3355.94 2515.28C3376.42 2468.86 3386.66 2386.94 3386.66 2269.52V1034.58L3233.06 1014.1V973.136H3591.46V2246.99C3591.46 2365.78 3565.51 2459.3 3513.63 2527.57C3463.11 2597.2 3376.42 2632.02 3253.54 2632.02ZM4151.22 2054.48C4063.83 2054.48 3992.15 2031.95 3936.18 1986.9C3880.2 1940.47 3852.21 1872.21 3852.21 1782.1C3852.21 1653.75 3906.14 1562.96 4014 1509.71C4121.86 1455.1 4246.79 1427.79 4388.78 1427.79H4526V1270.1C4526 1199.1 4517.81 1144.49 4501.42 1106.26C4486.41 1066.66 4462.51 1039.35 4429.74 1024.34C4396.98 1007.95 4352.6 999.76 4296.62 999.76C4232.45 999.76 4184.67 1012.73 4153.26 1038.67C4121.86 1063.25 4106.16 1096.7 4106.16 1139.02C4106.16 1178.62 4125.27 1204.56 4163.5 1216.85C4163.5 1250.98 4150.53 1281.02 4124.59 1306.96C4098.65 1332.9 4067.93 1345.87 4032.43 1345.87C3994.2 1345.87 3963.48 1335.63 3940.27 1315.15C3917.06 1293.31 3905.46 1260.54 3905.46 1216.85C3905.46 1137.66 3945.05 1074.17 4024.24 1026.38C4103.43 978.597 4202.42 954.704 4321.2 954.704C4594.27 954.704 4730.8 1073.49 4730.8 1311.06V1896.78C4730.8 1926.82 4736.94 1950.03 4749.23 1966.42C4762.89 1981.43 4782 1988.94 4806.58 1988.94C4829.79 1988.94 4848.22 1981.43 4861.87 1966.42C4875.53 1950.03 4882.35 1928.19 4882.35 1900.88H4925.36C4925.36 1948.67 4909.66 1986.21 4878.26 2013.52C4848.22 2040.83 4805.89 2054.48 4751.28 2054.48C4688.47 2054.48 4635.23 2036.73 4591.54 2001.23C4549.21 1964.37 4527.37 1907.71 4526 1831.25C4493.23 1900.88 4442.71 1955.49 4374.45 1995.09C4307.55 2034.68 4233.14 2054.48 4151.22 2054.48ZM4263.86 1964.37C4300.72 1964.37 4338.27 1953.45 4376.5 1931.6C4416.09 1909.75 4449.54 1878.35 4476.85 1837.39C4504.15 1795.07 4520.54 1744.55 4526 1685.84V1472.85H4388.78C4276.83 1472.85 4192.86 1498.11 4136.88 1548.62C4082.27 1597.78 4054.96 1667.41 4054.96 1757.52C4054.96 1832.61 4072.71 1885.86 4108.21 1917.26C4143.71 1948.67 4195.59 1964.37 4263.86 1964.37Z" fill="#D4AF37"/>
<path d="M6086.17 1947.88C6105.63 1947.88 6122.85 1941.51 6137.83 1928.79C6153.55 1915.31 6161.41 1894.35 6161.41 1865.9C6161.41 1833.7 6148.68 1802.26 6123.23 1771.56C6098.52 1740.86 6062.21 1713.54 6014.29 1689.58V1858.04C6014.29 1875.26 6016.16 1889.85 6019.91 1901.83C6024.4 1913.06 6030.02 1922.05 6036.75 1928.79C6043.49 1935.53 6050.98 1940.39 6059.21 1943.39C6068.2 1946.38 6077.18 1947.88 6086.17 1947.88ZM7086.8 958.475C7172.15 960.721 7230.55 964.464 7262 969.705C7311.41 977.941 7351.47 994.412 7382.16 1019.12C7413.61 1043.08 7436.44 1077.52 7450.67 1122.44C7464.9 1167.36 7472.01 1226.13 7472.01 1298.76V2022H7266.49V1333.57C7266.49 1280.41 7263.12 1238.11 7256.38 1206.67C7249.64 1174.47 7238.41 1150.14 7222.69 1133.67C7206.97 1116.45 7186.38 1105.22 7160.92 1099.98C7159.43 1099.98 7134.72 1099.6 7086.8 1098.86V1094.36C7023.91 1092.87 6983.11 1092.12 6964.39 1092.12C6956.15 1092.12 6944.18 1092.49 6928.45 1093.24C6912.73 1093.24 6898.51 1093.99 6885.78 1095.49V1097.73C6897.01 1117.95 6905.62 1140.03 6911.61 1163.99C6917.6 1187.95 6922.09 1212.66 6925.08 1238.11C6928.08 1263.57 6929.58 1289.4 6929.58 1315.6C6930.32 1341.81 6930.7 1367.26 6930.7 1391.97V1877.13C6930.7 1911.57 6925.83 1939.27 6916.1 1960.23C6907.12 1981.2 6893.64 1997.29 6875.67 2008.52C6866.69 2014.51 6856.95 2019.38 6846.47 2023.12V2037.72H6819.52C6775.34 2037.72 6738.28 2035.1 6708.34 2029.86C6678.39 2024.62 6654.43 2016.01 6636.46 2004.03C6618.49 1991.3 6605.39 1974.46 6597.15 1953.49C6589.67 1932.53 6585.92 1906.33 6585.92 1874.88V1301C6585.92 1252.34 6581.43 1213.41 6572.45 1184.21C6564.21 1155.01 6549.24 1132.92 6527.53 1117.95C6506.56 1102.22 6478.49 1092.12 6443.3 1087.62C6408.11 1082.38 6364.31 1079.76 6311.9 1079.76C6258.74 1079.76 6213.45 1082.38 6176.01 1087.62C6138.58 1092.12 6107.88 1101.85 6083.92 1116.82C6059.96 1131.8 6042.37 1153.51 6031.14 1181.96C6019.91 1209.66 6014.29 1247.1 6014.29 1294.27V1589.63C6052.48 1603.1 6088.04 1619.2 6120.98 1637.92C6154.67 1656.64 6183.87 1677.97 6208.58 1701.93C6233.29 1725.14 6252.75 1750.97 6266.98 1779.42C6281.2 1807.87 6288.32 1838.94 6288.32 1872.63C6288.32 1895.84 6284.57 1918.31 6277.09 1940.02C6269.6 1961.73 6257.99 1981.2 6242.27 1998.42C6227.3 2014.89 6207.46 2027.99 6182.75 2037.72C6158.79 2048.2 6129.97 2053.45 6096.28 2053.45C6068.57 2053.45 6043.87 2049.7 6022.15 2042.21C6000.44 2034.73 5981.72 2022.75 5966 2006.28C5951.03 1989.06 5939.42 1967.35 5931.19 1941.14C5922.95 1914.19 5918.83 1881.99 5918.83 1844.56V1654.76C5876.16 1642.04 5828.62 1631.55 5776.21 1623.32C5723.8 1615.08 5666.15 1610.22 5603.26 1608.72V2022H5397.74V1217.9C5397.74 1190.2 5396.62 1167.36 5394.37 1149.39C5392.12 1131.42 5388.38 1117.2 5383.14 1106.72C5377.9 1096.24 5371.16 1089.12 5362.93 1085.38C5355.44 1081.64 5346.08 1079.76 5334.85 1079.76C5315.38 1079.76 5296.67 1085 5278.7 1095.49C5261.48 1105.97 5245.75 1123.56 5231.53 1148.27C5218.05 1172.98 5207.2 1205.54 5198.96 1245.97C5190.73 1285.66 5186.61 1335.07 5186.61 1394.22V1686.21C5186.61 1728.88 5188.85 1764.45 5193.35 1792.9C5197.84 1821.35 5205.32 1846.06 5215.81 1867.02C5227.04 1887.23 5240.89 1904.83 5257.36 1919.8C5274.58 1934.78 5295.54 1950.12 5320.25 1965.85C5316.51 1980.07 5310.52 1993.55 5302.28 2006.28C5294.05 2018.26 5283.19 2028.74 5269.71 2037.72C5236.02 2019.75 5207.95 2000.66 5185.48 1980.45C5163.02 1959.48 5144.68 1936.27 5130.46 1910.82C5116.23 1884.61 5106.12 1855.04 5100.13 1822.1C5094.14 1788.41 5091.15 1750.22 5091.15 1707.55V1361.65C5091.15 1329.45 5092.27 1296.89 5094.52 1263.94C5096.76 1231 5101.26 1199.18 5107.99 1168.48C5114.73 1137.04 5124.47 1107.84 5137.19 1080.89C5150.67 1053.93 5168.64 1030.35 5191.1 1010.13C5213.56 989.92 5240.89 974.197 5273.08 962.967C5305.28 950.988 5344.21 944.998 5389.88 944.998C5423.57 944.998 5453.52 948.742 5479.72 956.229C5505.93 963.715 5528.01 976.443 5545.98 994.412C5564.7 1012.38 5578.93 1036.34 5588.66 1066.29C5598.39 1096.24 5603.26 1133.67 5603.26 1178.59V1525.61C5652.67 1525.61 5704.33 1528.98 5758.24 1535.72C5812.14 1541.71 5865.68 1551.07 5918.83 1563.8V1253.84C5918.83 1187.95 5926.32 1134.79 5941.29 1094.36C5957.02 1053.18 5981.35 1021.74 6014.29 1000.03C6047.98 978.315 6091.03 963.715 6143.44 956.229C6196.6 948.742 6260.99 944.998 6336.61 944.998C6403.24 944.998 6464.26 948.367 6519.66 955.105C6575.82 961.844 6623.73 976.443 6663.41 998.904C6703.84 1021.37 6735.29 1054.31 6757.75 1097.73C6780.21 1140.41 6791.44 1198.06 6791.44 1270.68V1880.5C6791.44 1905.2 6796.31 1922.42 6806.04 1932.16C6807.54 1933.65 6809.41 1935.15 6811.66 1936.65C6815.4 1934.4 6818.39 1931.78 6820.64 1928.79C6830.37 1916.81 6835.24 1900.71 6835.24 1880.5V1352.66C6835.24 1321.97 6834.49 1288.65 6832.99 1252.71C6832.25 1216.03 6827.75 1180.09 6819.52 1144.9C6812.03 1109.71 6800.05 1077.14 6783.58 1047.2C6767.11 1016.5 6743.52 991.792 6712.83 973.074V966.336C6764.49 963.341 6813.15 961.095 6858.82 959.598C6904.49 958.1 6945.67 957.352 6982.36 957.352H7086.8V958.475Z" fill="#D4AF37"/>
<path d="M7545.01 2850.63C7548 2850.63 7551 2850.26 7553.99 2849.51C7568.96 2846.52 7581.32 2840.9 7591.05 2832.67C7600.78 2824.43 7608.27 2812.45 7613.51 2796.73C7618 2781.01 7620.25 2760.42 7620.25 2734.96V1188.53H7715.71V2783.25C7715.71 2828.92 7710.47 2865.61 7699.99 2893.31C7690.25 2921.76 7674.91 2943.85 7653.94 2959.57C7632.98 2975.29 7606.77 2985.77 7575.33 2991.02C7572.33 2991.76 7568.96 2992.51 7565.22 2993.26V3000H7551.74C7500.83 3000 7457.41 2996.26 7421.47 2988.77C7385.53 2981.28 7355.96 2967.06 7332.75 2946.09C7309.54 2925.13 7292.69 2895.93 7282.21 2858.5C7271.73 2821.81 7266.49 2773.89 7266.49 2714.75V2022H7472.01L7469.76 2672.07C7469.76 2712.5 7471.63 2744.69 7475.38 2768.65C7479.12 2792.61 7485.48 2810.95 7494.47 2823.68C7503.45 2836.41 7515.81 2844.65 7531.53 2848.39L7545.01 2850.63Z" fill="#D4AF37"/>
</svg>
