<svg width="164" height="123" viewBox="0 0 164 123" fill="none" xmlns="http://www.w3.org/2000/svg">
<g clip-path="url(#clip0_26_263)">
<path d="M160.644 72.997C159.288 73.029 158.555 73.9095 157.875 74.886C154.321 79.9927 150.763 85.0954 147.201 90.194C146.897 90.6263 146.761 91.3346 145.953 91.2106C141.846 90.5782 137.736 89.9579 133.546 89.3216C133.64 89.1829 133.742 89.0493 133.85 88.9214C139.969 83.4225 142.531 76.6149 141.298 68.4506C141.166 67.5822 141.578 67.4981 142.207 67.3501C145.312 66.6297 148.406 65.8653 151.503 65.1289C154.349 64.4525 155.037 63.372 154.369 60.5625C153.605 57.3608 152.828 54.1592 152.076 50.9575C150.839 45.6987 150.507 45.4546 145.272 46.7833C144.14 47.0714 143.719 46.8593 143.459 45.7067C142.315 40.6321 141.058 35.5774 139.857 30.4987C138.389 24.2675 134.002 20.4454 127.783 20.1213C118.642 19.6437 109.497 19.2128 100.349 18.8286C99.9369 18.8412 99.5288 18.7477 99.1636 18.5571C98.7985 18.3664 98.4885 18.0851 98.2635 17.74C95.2619 13.6099 92.2257 9.50505 89.1547 5.42558C86.4973 1.87972 82.9235 0.114788 78.5652 1.11932C64.0256 4.46507 49.5259 7.99092 35.0223 11.4768C32.9693 11.969 32.2209 13.3457 32.7251 15.4789C34.8756 24.4622 37.0314 33.4456 39.1925 42.429C39.7808 44.8703 39.7768 44.8702 37.3876 45.4625C36.7673 45.6146 36.1549 45.7827 35.5346 45.9308C33.1334 46.5031 33.1334 46.4991 32.537 44.0138C30.7441 36.5245 28.9432 29.0393 27.1342 21.558C26.6379 19.5089 25.2932 18.4964 23.6684 18.8726C22.0435 19.2488 21.2671 20.7016 21.6673 22.7827C21.9755 24.2915 22.2957 25.8043 22.7399 27.277C22.8482 27.6257 22.8775 27.9941 22.8256 28.3554C22.7736 28.7168 22.6418 29.0621 22.4398 29.3661C19.2381 35.1211 15.8283 40.7721 12.9788 46.6952C11.0698 50.6613 8.57649 53.0185 4.08613 53.4988C0.940479 53.843 0.34016 55.2437 1.08055 58.3333C2.53198 64.3738 3.97404 70.417 5.40679 76.4628C5.67493 77.5954 6.44336 79.0082 6.03114 79.8006C5.55089 80.7371 3.86199 80.529 2.70938 80.8612C2.45325 80.9332 2.1971 81.0092 1.94897 81.1053C0.448186 81.6936 -0.304197 82.9463 0.059994 84.5231C1.06052 88.8747 2.09975 93.2129 3.17765 97.5379C3.64589 99.4109 5.02263 100.167 6.94363 99.719C10.4575 98.9186 13.9793 98.0862 17.4731 97.1897C18.4697 96.9336 18.8579 97.1617 19.15 98.1382C19.9075 100.522 21.0988 102.746 22.6638 104.698C24.857 107.527 27.6505 109.596 30.9402 111.265C28.0867 112.65 25.2532 113.77 22.6879 115.331C19.9865 116.98 17.5132 117.04 14.6837 115.731C12.3865 114.671 9.88116 113.994 7.4799 113.194C5.25474 112.462 3.47779 113.426 3.3137 115.447C3.18564 117.088 4.15016 117.977 5.58692 118.481C9.39692 119.806 13.2269 121.07 16.9969 122.483C17.6845 122.756 18.4242 122.874 19.1626 122.826C19.901 122.779 20.6198 122.569 21.2671 122.211C27.0301 119.377 32.8172 116.608 38.5842 113.782C39.4405 113.362 40.3838 113.15 41.3377 113.162C49.4299 113.182 57.5222 113.134 65.6144 113.182C66.3789 113.214 67.1411 113.078 67.8467 112.781C68.5523 112.485 69.1839 112.037 69.6965 111.469C72.578 108.48 75.5636 105.594 78.4732 102.633C78.6945 102.349 79.0017 102.145 79.3489 102.051C79.696 101.958 80.0642 101.979 80.3981 102.112C85.2887 103.537 90.2153 104.834 95.1059 106.262C95.8336 106.495 96.6006 106.579 97.3615 106.511C98.1225 106.442 98.8619 106.222 99.5362 105.862C107.388 101.988 115.28 98.1982 123.149 94.3402C123.995 93.8998 124.96 93.744 125.902 93.896C132.682 94.9245 139.473 95.897 146.245 96.9696C148.246 97.2898 149.554 96.7495 150.699 95.0686C154.909 88.8854 159.224 82.7701 163.506 76.6269V75.0261C162.897 73.8815 162.125 72.973 160.644 72.997ZM145.837 52.3582C146.497 52.1941 146.681 52.5343 146.801 53.0506C147.281 55.1116 147.725 57.1847 148.27 59.2298C148.466 59.9702 148.178 60.1583 147.573 60.2944C145.096 60.8667 142.619 61.423 140.158 62.0593C139.509 62.2314 139.209 62.1073 138.913 61.535C137.712 59.2098 136.031 57.2407 133.874 55.2677C138.036 54.2672 141.942 53.3307 145.845 52.3662L145.837 52.3582ZM136.348 39.7796C136.44 40.3479 136.496 40.7321 135.707 40.9002C133.23 41.4285 130.777 42.0608 128.135 42.6971C128.235 41.4205 128.279 40.4159 128.399 39.4234C128.434 38.8621 128.639 38.3247 128.989 37.8839C129.338 37.4431 129.814 37.1199 130.352 36.9581C130.753 36.826 131.153 36.726 131.553 36.6219C135.659 35.6174 135.659 35.6174 136.348 39.7796ZM24.9651 36.4578C25.8335 40.0597 26.5419 43.1974 27.3663 46.311C27.6905 47.5116 27.3423 47.9399 26.1657 48.184C23.3282 48.7803 20.5187 49.4967 17.3291 50.2491L24.9651 36.4578ZM18.0334 90.3541C18.0334 91.0505 17.7733 91.4067 17.0849 91.5548C14.3955 92.1764 11.7115 92.8194 9.03272 93.4837C8.34036 93.6558 8.00018 93.5398 7.83209 92.7474C7.40787 90.7223 6.89159 88.7173 6.37933 86.7122C6.21524 86.0559 6.40333 85.7437 7.07168 85.5876C11.1938 84.6271 15.308 83.6386 19.7063 82.5981C18.6887 85.0638 18.1221 87.6922 18.0334 90.3581V90.3541ZM13.0588 78.4359C12.0903 78.684 11.6861 78.5119 11.458 77.4474C10.1253 71.6003 8.74856 65.7612 7.27179 59.9462C6.97163 58.7696 7.17974 58.4254 8.32434 58.1572C19.5889 55.5025 30.8482 52.8198 42.1021 50.109C42.5023 50.009 42.9265 49.9129 43.3387 49.8049C45.5439 49.2166 46.3043 47.9999 45.78 45.8028C43.5708 36.5059 41.3777 27.201 39.0845 17.9281C38.7403 16.5474 39.1565 16.2352 40.3451 15.9551C53.0558 12.9535 65.7611 9.92794 78.4611 6.87834C79.1815 6.71025 79.9219 6.6262 80.2621 6.56617C82.6273 6.56617 83.892 7.69876 84.9766 9.16753C88.1782 13.4898 91.3799 17.7801 94.5416 22.1343C94.9856 22.8218 95.5947 23.3872 96.3134 23.7787C97.0321 24.1702 97.8373 24.3753 98.6557 24.3755C108.225 24.7757 117.79 25.308 127.359 25.7803C130.04 25.9083 132.161 26.9289 133.522 29.3461C133.922 30.0345 133.878 30.3426 133.05 30.5027C132.009 30.6988 130.981 30.987 129.952 31.2351C125.594 32.2957 123.253 34.837 122.748 39.2393C122.504 41.4044 122.392 43.5896 122.324 45.7667C122.244 48.276 123.781 49.4887 126.21 48.9204C129.724 48.0959 133.242 47.2835 136.74 46.3911C137.632 46.1629 137.94 46.343 138.136 47.2315C138.333 48.12 138.317 48.4321 137.356 48.6483C134.038 49.3846 130.745 50.2211 127.443 51.0215C126.87 51.1439 126.275 51.1191 125.714 50.9495C116.613 48.6202 108.905 50.9134 102.71 57.9972C99.6385 61.5103 97.857 65.9656 97.6592 70.6278C97.5912 71.8284 97.315 72.3487 96.0584 72.6288C84.3802 75.3702 72.7141 78.1918 61.052 81.0092C60.1835 81.2173 59.6673 81.1053 59.155 80.2088C51.9873 67.8583 35.7948 65.325 25.1932 74.87C24.5666 75.4397 23.7978 75.8296 22.968 75.9986C19.6569 76.7803 16.3539 77.5941 13.0588 78.4399V78.4359ZM39.8729 107.571C35.5494 107.489 31.429 105.721 28.39 102.645C25.3511 99.5683 23.6339 95.4267 23.6044 91.1025C23.6284 82.1818 31.0443 74.6659 39.7649 74.7219C49.1338 74.786 56.4896 82.0618 56.4576 91.2346C56.4416 100.163 48.8336 107.659 39.8849 107.575L39.8729 107.571ZM97.239 100.692C96.6027 101 96.0864 100.631 95.5581 100.487C90.4394 99.0947 85.3208 97.686 80.2301 96.2052C78.4331 95.6729 77.1004 96.0011 75.7957 97.3618C72.7341 100.563 69.5685 103.629 66.4468 106.755C65.9946 107.207 65.5944 107.603 64.846 107.591C61.6083 107.543 58.3746 107.591 55.0849 107.591C55.0849 107.015 55.5131 106.815 55.7772 106.535C60.7478 101.236 62.7769 94.9886 61.7283 87.8008C61.5763 86.7482 61.9685 86.5682 62.8049 86.3721C74.323 83.6373 85.8357 80.8865 97.3431 78.1197C97.9194 77.9797 98.2515 77.8716 98.5717 78.5599C102.834 87.6887 103.826 88.7013 112.775 93.1756C107.544 95.6969 102.374 98.1862 97.251 100.696L97.239 100.692ZM119.559 88.4732C110.314 88.4371 103.15 81.0052 103.178 71.5203C103.218 63.0838 111.022 55.5118 119.547 55.6319C128.511 55.764 135.999 63.0158 136.015 71.5883C136.043 81.0973 128.82 88.5132 119.583 88.4772L119.559 88.4732Z" fill="#725201"/>
<path d="M51.2989 42.8253C52.7556 42.5251 54.1964 42.1569 55.6411 41.8127C68.141 38.8245 80.6369 35.835 93.1288 32.8441C95.7542 32.2117 96.6667 30.1667 95.1299 28.0896C90.9597 22.3786 86.7254 16.7156 82.5072 11.0366C82.2298 10.6209 81.8516 10.2821 81.408 10.0518C80.9643 9.8216 80.4696 9.70744 79.9699 9.71992C79.5856 9.75922 79.2036 9.81797 78.8253 9.89599C67.7235 12.5507 56.623 15.2188 45.5238 17.9002C43.5748 18.3684 42.6823 19.6371 43.1226 21.5661C44.5953 27.9695 46.1308 34.3728 47.729 40.7762C48.1972 42.5291 49.4939 43.1935 51.2989 42.8253ZM62.3286 19.6131C67.4993 18.4605 72.638 17.1638 77.7927 15.9432C78.305 15.8231 78.8413 15.4709 79.3496 16.1633C82.2551 20.1374 85.2047 24.0794 88.2823 28.2176C80.5982 30.0466 73.1703 31.7875 65.7584 33.6084C64.7619 33.8526 64.3897 33.7645 64.1576 32.692C63.3092 28.866 62.3607 25.0599 61.4242 21.2499C61.2001 20.3815 61.152 19.8852 62.3286 19.6211V19.6131ZM49.8821 22.6147C51.535 22.2145 53.1799 21.8143 54.8207 21.414C55.5051 21.2379 55.7412 21.5021 55.8933 22.1624C56.8218 26.1885 57.7823 30.2066 58.7748 34.2168C58.9629 34.9892 58.8749 35.4174 57.9744 35.4774C57.6095 35.5433 57.2487 35.6301 56.8938 35.7376C55.453 35.9817 53.7281 37.1503 52.6956 36.4259C51.8031 35.8016 51.8351 33.8365 51.495 32.4518C50.7586 29.4142 50.0502 26.3686 49.3619 23.4711C49.1457 22.7988 49.4819 22.7147 49.8821 22.6227V22.6147Z" fill="black" fill-opacity="0.25"/>
<path d="M79.878 54.5876C81.4468 54.1873 82.2432 52.8907 82.0431 51.4979C81.843 50.1052 80.6224 49.0967 78.8094 49.1447C78.6854 49.1727 78.2691 49.2488 77.8569 49.3448C66.9178 51.9542 55.9788 54.5662 45.0397 57.1809C35.3359 59.5021 25.6335 61.8327 15.9324 64.1726C13.8834 64.6648 12.9268 65.9775 13.3151 67.6704C13.7033 69.3633 15.124 70.0717 17.1851 69.6274C17.4452 69.5714 17.7094 69.5314 17.9855 69.4713C35.6401 65.2451 53.292 61.0189 70.9413 56.7927C73.9028 56.0763 76.9044 55.388 79.878 54.5876Z" fill="black" fill-opacity="0.25"/>
<path d="M91.5881 57.2769C83.1197 59.294 74.6538 61.3204 66.1907 63.3561C63.2972 64.0525 60.3957 64.7008 57.5262 65.4692C56.8376 65.6134 56.2322 66.0197 55.8378 66.6023C55.4434 67.1849 55.2911 67.898 55.4131 68.5908C55.6252 69.9876 56.7258 70.9201 58.4427 70.9401C58.7188 70.884 59.2431 70.792 59.7554 70.668C65.7985 69.2352 71.8404 67.7984 77.8809 66.3577C82.7875 65.1891 87.6914 64.0151 92.5926 62.8358C93.8693 62.5317 95.0739 62.0954 95.4741 60.6507C96.1105 58.3535 94.1735 56.6646 91.5881 57.2769Z" fill="black" fill-opacity="0.25"/>
<path d="M86.5815 47.2597C84.9807 47.6599 84.1162 48.9686 84.3203 50.4614C84.4276 51.1306 84.7738 51.7382 85.2948 52.1716C85.8158 52.605 86.4762 52.8349 87.1538 52.8186C87.5058 52.785 87.8558 52.7329 88.2023 52.6625C92.4325 51.646 96.6668 50.6615 100.885 49.593C102.886 49.0887 103.859 47.6439 103.422 46.0391C102.986 44.4342 101.489 43.7219 99.5723 44.1341C98.3276 44.4022 97.099 44.7304 95.8623 45.0265C92.7687 45.7549 89.6631 46.4633 86.5815 47.2597Z" fill="black" fill-opacity="0.25"/>
<path d="M125.846 64.993C124.561 65.6613 124.061 67.042 124.581 68.5268C124.757 69.0271 124.981 69.5034 125.178 70.0036C126.022 72.3168 125.61 74.4059 123.941 76.1989C123.157 77.0339 122.149 77.6254 121.037 77.9027C119.926 78.1799 118.758 78.1311 117.673 77.7622C116.589 77.3932 115.634 76.7197 114.922 75.8222C114.21 74.9247 113.772 73.8411 113.66 72.701C113.351 69.6194 114.764 67.6664 118.298 66.1536C119.995 65.4292 120.667 64.1525 120.155 62.6357C119.643 61.1189 118.21 60.4146 116.433 60.9348C111.018 62.5357 107.336 67.8505 108.009 73.1252C108.809 79.2684 113.475 83.6107 119.415 83.6988C122.312 83.738 125.12 82.6962 127.291 80.7768C129.463 78.8574 130.841 76.1979 131.157 73.3174C131.429 70.8131 130.866 68.2889 129.556 66.1376C129.205 65.5045 128.623 65.0317 127.931 64.8184C127.24 64.605 126.492 64.6676 125.846 64.993Z" fill="black" fill-opacity="0.25"/>
<path d="M40.2051 79.5165C33.9298 79.3484 28.599 84.491 28.4229 90.8864C28.2468 97.2817 33.3735 102.601 39.8609 102.785C46.1522 102.961 51.4389 97.786 51.6751 91.2266C51.8912 85.0714 46.6204 79.6885 40.2051 79.5165ZM40.077 97.1257C38.887 97.1384 37.7201 96.7971 36.7245 96.1452C35.7289 95.4934 34.9496 94.5603 34.4854 93.4645C34.0212 92.3688 33.8931 91.1598 34.1174 89.9911C34.3418 88.8225 34.9085 87.7468 35.7454 86.9008C36.5824 86.0549 37.6518 85.4767 38.8181 85.2399C39.9843 85.003 41.1946 85.118 42.2952 85.5705C43.3959 86.0229 44.3373 86.7922 44.9998 87.7808C45.6623 88.7694 46.0161 89.9325 46.0161 91.1225C46.0225 91.9071 45.8736 92.6851 45.5781 93.4119C45.2826 94.1387 44.8463 94.7999 44.2944 95.3574C43.7424 95.915 43.0856 96.3579 42.3618 96.6607C41.638 96.9634 40.8615 97.1201 40.077 97.1217V97.1257Z" fill="black" fill-opacity="0.25"/>
</g>
<defs>
<clipPath id="clip0_26_263">
<rect width="163.53" height="122" fill="white" transform="translate(0 0.843262)"/>
</clipPath>
</defs>
</svg>
