<svg width="124" height="123" viewBox="0 0 124 123" fill="none" xmlns="http://www.w3.org/2000/svg">
<g clip-path="url(#clip0_27_302)">
<path d="M93.5602 56.4879C94.4352 55.8056 95.0763 54.3369 95.9986 54.3685C96.8072 54.3938 97.5779 55.7109 98.3486 56.4689C99.0404 57.1449 99.7005 57.8524 100.405 58.5125C101.548 59.5833 102.534 59.5833 103.677 58.4873C104.941 57.2586 106.22 56.0173 107.426 54.7191C107.941 54.1695 108.213 54.1916 108.734 54.7191C112.439 58.4746 116.198 62.1733 119.893 65.9384C120.557 66.6143 120.951 66.7912 121.627 65.9731C122.175 65.2369 122.848 64.6038 123.617 64.1032V63.86C123.323 63.5947 123.02 63.342 122.739 63.0609L98.0296 38.3545C96.3903 36.7184 95.5438 36.7247 93.8856 38.3829C90.8628 41.4025 87.8211 44.3842 84.8362 47.4575C84.1224 48.1903 83.7497 48.3293 82.9411 47.5049C76.5987 41.0772 70.1994 34.7127 63.8128 28.3292C62.0724 26.5888 61.327 26.5888 59.5898 28.3292C53.1778 34.7411 46.7501 41.1404 40.373 47.5965C39.6433 48.3356 39.3085 48.2472 38.6421 47.5649C35.6604 44.5042 32.6155 41.5068 29.5959 38.484C27.8145 36.7057 27.0375 36.6962 25.2845 38.4493C17.4722 46.2573 9.66319 54.0663 1.8573 61.8764C1.17505 62.5587 0.0158568 63.2662 0.00953963 63.9706C0.00322248 64.6749 1.25402 65.3066 1.85099 66.0521C2.44797 66.7975 2.79856 66.6838 3.40501 66.0521C7.10686 62.287 10.8719 58.5852 14.5737 54.8202C15.1707 54.2137 15.4866 54.2106 16.0551 54.8202C17.2017 56.0647 18.4209 57.2428 19.6338 58.4209C20.8467 59.5991 21.8448 59.6275 23.0829 58.4209C24.3211 57.2144 25.6098 55.932 26.8416 54.6528C27.2554 54.2232 27.5302 54.1158 27.9692 54.6306C28.5083 55.2839 29.1091 55.8837 29.7633 56.4216C30.5561 57.0533 30.5056 57.4513 29.7823 58.1714C20.4034 67.4892 11.0498 76.8312 1.72148 86.1975C1.08977 86.8292 0.0411223 87.4609 0.00637797 88.1179C-0.0346835 88.8854 1.19084 89.3813 1.72464 90.1173C2.38794 91.0238 2.8333 90.8058 3.54083 90.0951C15.1454 78.4463 26.7679 66.8143 38.4083 55.1992C38.5919 55.0409 38.762 54.8677 38.9169 54.6812C39.3401 54.1032 39.6686 54.2074 40.1266 54.6812C41.289 55.913 42.505 57.0912 43.7084 58.2788C45.1014 59.6528 46.0237 59.6559 47.4166 58.2788C49.2486 56.4626 51.0932 54.6591 52.8746 52.7955C53.4495 52.1954 53.7685 52.1386 54.3655 52.7671C56.0869 54.577 57.881 56.3205 59.6498 58.0861C61.3143 59.7475 62.0913 59.7381 63.7875 58.0482C65.5563 56.2826 67.3504 54.5391 69.0718 52.7324C69.6403 52.1354 69.9404 52.2017 70.4742 52.7513C72.322 54.6464 74.2108 56.5416 76.1091 58.402C77.341 59.6117 78.3201 59.6117 79.5583 58.402C80.7143 57.2807 81.8893 56.1689 82.9632 54.9718C83.6392 54.2137 84.015 54.1537 84.792 54.937C93.5076 63.7221 102.246 72.4787 111.008 81.2069C113.946 84.1412 116.905 87.0534 119.802 90.0257C120.519 90.7616 120.974 90.9732 121.697 90.0667C122.208 89.3531 122.851 88.7441 123.592 88.2726V88.0295C123.241 87.7136 122.878 87.3977 122.54 87.0629C112.888 77.4145 103.232 67.7682 93.5729 58.124C92.9696 57.5208 92.758 57.1164 93.5602 56.4879ZM35.7299 52.1891C34.9686 52.8966 34.2264 54.1979 33.4841 54.1916C32.7419 54.1853 31.9648 52.9282 31.2163 52.1922C30.6098 51.6016 30.0192 50.9951 29.419 50.3982C27.8777 48.8663 26.9648 48.8568 25.4487 50.3603C24.2769 51.5258 23.105 52.6881 21.9553 53.8694C21.5763 54.2611 21.3015 54.4633 20.8372 53.9421C20.1423 53.1619 19.3842 52.4386 18.6262 51.7153C18.263 51.3742 18.2219 51.1531 18.6262 50.7677C21.4078 48.0303 24.1726 45.2707 26.9206 42.4891C27.2365 42.1732 27.4607 42.0153 27.8682 42.4322C30.6414 45.2434 33.4399 48.0229 36.2289 50.8151C36.3647 50.9509 36.4784 51.1025 36.7564 51.4247C36.4012 51.6616 36.0586 51.9167 35.7299 52.1891ZM80.1837 52.0754C79.4067 52.8303 78.6676 54.1095 77.8274 54.1821C76.9872 54.2548 76.2765 52.865 75.509 52.1227C74.1508 50.8025 72.8368 49.4379 71.4818 48.1177C70.2468 46.9111 69.2708 46.9048 68.0421 48.1177C66.147 49.9812 64.2518 51.8511 62.404 53.762C61.8766 54.3053 61.5765 54.3938 61.0016 53.7905C59.1918 51.8953 57.3187 50.0665 55.4583 48.2251C54.0812 46.8669 53.1431 46.8764 51.7533 48.2567C49.8582 50.1297 47.9788 52.0027 46.1247 53.9073C45.6889 54.359 45.4172 54.3559 45.0098 53.9073C44.2012 53.0166 42.7735 52.227 42.6724 51.2794C42.5714 50.3318 44.0969 49.5296 44.934 48.6894C50.2467 43.3451 55.591 38.0355 60.8943 32.6849C61.5039 32.0689 61.8039 31.9805 62.4735 32.6533C68.3969 38.6419 74.3466 44.6011 80.3226 50.5308C80.5646 50.7441 80.8211 50.9404 81.0902 51.1183C80.6733 51.5542 80.4395 51.8258 80.1742 52.0754H80.1837ZM90.5817 53.7968C90.1174 54.2864 89.7984 54.479 89.293 53.8442C88.5476 52.8966 86.9746 52.2207 87.0125 51.2162C87.0441 50.3508 88.456 49.5296 89.2772 48.6894C91.2924 46.6616 93.3391 44.6622 95.3259 42.606C95.8502 42.0627 96.1155 42.0816 96.6304 42.606C99.252 45.2802 101.901 47.9271 104.577 50.5466C105.073 51.033 105.228 51.3299 104.622 51.848C103.867 52.5158 103.152 53.2266 102.48 53.9768C102.12 54.3653 101.908 54.3369 101.532 53.9579C100.269 52.6534 98.974 51.3931 97.698 50.1076C97.1989 49.6085 96.6525 49.2263 95.8755 49.2579C95.1585 49.2579 94.6373 49.6906 94.1477 50.1834C92.9633 51.3963 91.7472 52.5713 90.5975 53.7968H90.5817Z" fill="#725201"/>
<path d="M115.834 116.618C115.029 116.03 114.824 115.547 115.203 114.555C116.196 111.988 116.392 109.18 115.765 106.5C115.137 103.819 113.716 101.39 111.687 99.5297C110.932 98.8348 110.913 98.3263 111.27 97.4198C112.85 93.4652 112.243 89.7918 109.299 86.6996C106.406 83.6578 102.805 82.7229 98.8161 84.1001C92.9664 86.1184 90.4206 92.2429 92.9632 97.9252C93.1591 98.361 93.3676 98.7369 92.8338 99.0433C92.5179 99.217 92.2336 99.8961 91.8862 99.3939C91.3429 98.6106 89.8647 98.6358 90.1269 97.1418C90.6891 93.9359 89.7131 91.21 87.1073 89.2454C84.4288 87.2207 81.4534 86.9586 78.4875 88.5442C75.6258 90.0761 74.0371 92.584 74.2898 95.8437C74.4161 97.4798 74.1255 98.5758 72.7105 99.3528C72.3567 99.5486 72.1451 100.351 71.5829 99.7161C71.1185 99.1981 70.1015 98.9454 70.7458 97.8209C71.5648 96.3221 71.896 94.6052 71.6934 92.9093C71.2828 88.5694 68.9897 85.4993 64.893 84.0653C60.7963 82.6313 57.1008 83.661 54.2233 86.8417C51.3459 90.0224 50.7773 93.8601 52.584 97.8399C53.0136 98.7874 52.4324 99.0243 51.9965 99.4792C51.4122 100.089 51.1942 99.3781 50.8594 99.1633C50.5246 98.9485 50.3193 98.6642 50.0066 98.4937C49.7273 98.3758 49.506 98.1522 49.3912 97.8716C49.2764 97.591 49.2773 97.2764 49.3939 96.9965C49.7097 95.8784 49.555 94.7603 49.3086 93.6547C48.4495 89.8202 44.3086 86.9933 40.4646 87.6124C36.15 88.3073 32.963 92.126 33.5157 96.1879C33.6989 97.5303 33.4841 98.3989 32.3091 99.0306C31.889 99.2486 31.7058 100.098 30.9509 99.4507C30.3382 98.9232 30.0413 98.5032 30.4803 97.6472C31.5574 95.5562 31.6616 93.3136 31.0931 91.0647C29.7601 85.7741 24.2642 82.5081 18.9452 83.8C16.3775 84.4418 14.1641 86.0651 12.7803 88.3212C11.3965 90.5773 10.9529 93.2861 11.5446 95.8658C11.7594 96.8133 12.6091 97.7609 12.4322 98.5379C12.2395 99.3781 11.1151 99.9751 10.5023 100.749C7.13211 105.054 6.34562 109.792 8.2913 114.921C8.53451 115.569 8.47767 115.932 7.90913 116.321C6.86291 117.077 5.90135 117.945 5.04114 118.908C3.52186 120.525 3.5187 120.525 5.31909 121.87C5.62202 122.071 5.91115 122.291 6.18454 122.53C6.69623 123.033 7.02156 122.846 7.4227 122.354C8.66993 120.825 10.1647 119.516 11.8447 118.481C13.4998 117.442 13.7083 116.551 12.7165 114.858C11.9541 113.622 11.4861 112.227 11.3488 110.781C11.0172 106.637 12.6122 103.424 16.0867 101.128C17.4164 100.247 17.8113 99.3149 17.268 98.2284C17.0178 97.8159 16.7381 97.4222 16.431 97.0502C15.7081 96.0242 15.322 94.7989 15.3259 93.5438C15.3299 92.2887 15.7238 91.0659 16.4531 90.0445C17.1864 89.0252 18.2201 88.2606 19.4095 87.858C20.5988 87.4553 21.8844 87.4346 23.0861 87.7987C27.148 89.0622 28.6546 93.8 26.0836 97.2745C24.798 99.0117 24.8201 100.063 26.4373 101.002C27.5996 101.692 28.6121 102.608 29.4151 103.696C30.2182 104.783 30.7956 106.021 31.1135 107.335C31.4313 108.649 31.4832 110.013 31.2659 111.347C31.0487 112.682 30.5668 113.959 29.8486 115.105C28.9831 116.498 29.2895 117.464 30.673 118.374C31.8187 119.122 32.9091 119.952 33.9358 120.856C34.6654 121.488 35.076 122.875 36.0331 122.752C36.9048 122.638 37.6345 121.611 38.4747 121.062C39.0622 120.676 38.939 120.395 38.5631 119.947C37.4794 118.592 36.2208 117.386 34.8202 116.362C34.1885 115.92 34.1885 115.541 34.438 114.89C35.74 111.727 35.8009 108.19 34.6086 104.985C33.8789 102.916 33.9768 102.625 35.872 101.422C36.1089 101.27 36.3553 101.131 36.5953 100.986C38.5473 99.7761 38.7084 99.2707 37.8272 97.1576C37.4337 96.2649 37.3841 95.2583 37.6878 94.3313C37.9916 93.4042 38.6273 92.6222 39.4728 92.1355C40.2079 91.7081 41.0595 91.5243 41.9055 91.6105C42.7515 91.6967 43.5484 92.0486 44.1822 92.6156C44.8148 93.1837 45.2484 93.94 45.4189 94.773C45.5895 95.606 45.4882 96.4718 45.1298 97.2429C44.3085 99.1759 44.4981 99.814 46.2985 100.897C47.0896 101.372 47.8305 101.925 48.5095 102.549C49.0085 103.007 49.078 103.367 48.8 103.986C47.9954 105.705 47.5613 107.573 47.526 109.47C47.4906 111.367 47.8547 113.25 48.5947 114.997C48.838 115.597 48.7622 115.923 48.241 116.283C46.9397 117.18 45.8815 118.345 44.7855 119.473C44.0243 120.259 43.8063 120.831 44.9624 121.415C45.4784 121.691 45.9544 122.035 46.3774 122.439C46.9239 122.935 47.2934 123.007 47.8083 122.325C48.988 120.837 50.4247 119.573 52.0502 118.592C53.9075 117.401 54.078 116.652 52.9978 114.716C51.7292 112.512 51.3449 109.908 51.9224 107.432C52.5 104.955 53.9963 102.79 56.109 101.374C58.2568 99.9245 58.3832 99.2138 56.8544 97.1197C55.9859 95.9397 55.5791 94.4828 55.7105 93.0236C55.842 91.5644 56.5028 90.2037 57.5683 89.198C58.633 88.1941 60.0262 87.6111 61.4887 87.5576C62.9511 87.5042 64.3832 87.9839 65.5184 88.9074C68.1147 91.0205 68.4969 94.5392 66.4312 97.3313C65.1867 99.0085 65.2531 100.098 66.8576 101.052C68.0075 101.742 69.0088 102.654 69.8036 103.734C70.5983 104.814 71.1707 106.042 71.4874 107.345C71.8042 108.648 71.859 110.001 71.6487 111.325C71.4385 112.65 70.9673 113.919 70.2626 115.06C69.3339 116.551 69.6119 117.461 71.0838 118.412C72.2239 119.168 73.3147 119.996 74.3498 120.891C75.0889 121.523 75.4142 122.938 76.4502 122.752C77.3346 122.59 78.0579 121.605 78.895 121.046C79.4067 120.705 79.3624 120.468 78.996 120.032C77.8846 118.648 76.6001 117.412 75.1741 116.355C74.6214 115.967 74.5077 115.632 74.7762 114.975C76.0713 111.857 76.1725 108.371 75.0604 105.184C74.3908 103.153 74.4003 103.108 76.1502 101.766C76.4685 101.52 76.8019 101.294 77.1483 101.09C79.4003 99.7508 79.5077 99.4634 78.5728 97.0597C78.3314 96.4606 78.24 95.8115 78.3067 95.169C78.3734 94.5264 78.5961 93.91 78.9554 93.3732C79.3147 92.8364 79.7998 92.3955 80.3684 92.089C80.937 91.7824 81.5718 91.6195 82.2178 91.6143C85.2026 91.5701 87.0915 94.457 85.9228 97.2555C85.0984 99.2391 85.2753 99.8108 87.0915 100.904C87.7814 101.316 88.4345 101.788 89.0435 102.312C89.5457 102.748 89.6752 103.086 89.3593 103.734C87.78 106.993 87.4484 110.436 88.6613 113.819C89.2488 115.455 88.9329 116.248 87.6284 117.196C86.365 118.102 85.3669 119.325 84.2488 120.411C84.2656 115.147 84.2824 109.882 84.2993 104.618C84.2993 101.605 84.2993 101.643 81.3176 101.618C80.43 101.618 80.2784 101.918 80.2847 102.717C80.3163 108.105 80.2847 113.497 80.2847 118.885C80.2847 121.896 80.2847 121.861 83.2822 121.87C84.1729 121.87 84.4509 121.592 84.2298 120.765C85.2248 121.059 85.9133 121.823 86.6903 122.429C87.322 122.925 87.6758 122.985 88.2096 122.29C89.3659 120.836 90.7711 119.599 92.36 118.636C94.2551 117.429 94.4352 116.655 93.3075 114.666C92.1942 112.775 91.7617 110.56 92.082 108.39C92.5463 105.259 94.1446 102.868 96.7978 101.144C98.4971 100.041 98.6455 99.0591 97.4295 97.4608C97.3347 97.3313 97.2305 97.2081 97.1357 97.0786C96.412 96.0534 96.0235 94.8292 96.0235 93.5742C96.0235 92.3192 96.412 91.0951 97.1357 90.0698C97.8718 89.0535 98.9055 88.2912 100.094 87.8883C101.282 87.4854 102.566 87.4618 103.769 87.8209C104.697 88.0998 105.545 88.599 106.239 89.2758C106.933 89.9527 107.453 90.7873 107.755 91.7085C108.057 92.6297 108.132 93.6103 107.974 94.5667C107.815 95.5232 107.428 96.4272 106.845 97.2018C105.373 99.1949 105.519 99.9751 107.622 101.374C108.642 102.031 109.521 102.883 110.209 103.882C112.543 107.376 112.736 111.002 110.759 114.71C109.669 116.744 109.811 117.404 111.757 118.661C113.341 119.63 114.744 120.869 115.901 122.322C116.387 122.954 116.747 122.973 117.335 122.464C118.09 121.804 118.914 121.239 119.735 120.626C118.653 119.093 117.337 117.741 115.834 116.618Z" fill="#725201"/>
<path d="M9.68733 26.8699C13.525 27.3847 17.41 26.9425 20.5402 27.0689C24.4916 27.0689 27.7133 27.0689 30.9351 27.0689C35.2939 27.0405 38.6673 24.3809 39.3811 20.4359C40.0949 16.4908 38.0103 12.9784 33.9231 11.3581C33.7209 11.2852 33.5425 11.1584 33.4072 10.9913C33.2719 10.8243 33.1849 10.6234 33.1555 10.4105C31.9205 5.4863 28.8788 2.25824 23.8978 1.18117C18.6324 0.0409192 14.422 1.91397 11.3045 6.25386C11.1735 6.47526 10.9894 6.66052 10.7688 6.79288C10.5482 6.92524 10.2981 7.00052 10.0411 7.01192C7.80917 7.15226 5.70832 8.11432 4.14401 9.71248C1.26971 12.5552 0.300033 16.0044 1.4845 19.8736C2.71319 23.8913 5.51485 26.3108 9.68733 26.8699ZM8.63552 11.5539C9.48867 11.0859 10.4562 10.867 11.4277 10.9222C12.8585 11.0612 13.6387 10.3979 14.2704 9.20396C15.5686 6.70236 17.6785 5.32208 20.4644 4.95569C22.5252 4.7217 24.5967 5.29395 26.2452 6.55267C27.8937 7.8114 28.9913 9.65901 29.3084 11.7087C29.3558 12.0688 29.3842 12.4289 29.4347 12.7889C29.6369 14.2324 30.1549 14.7599 31.5573 14.9652C34.0684 15.3316 35.5971 16.9772 35.4581 19.163C35.3128 21.475 33.5946 22.9754 31.0361 22.9848C27.7733 22.9848 24.5105 22.9848 21.2446 22.9848C17.8617 22.9848 14.4789 23.029 11.0992 22.9848C9.76032 22.9568 8.46902 22.4831 7.42958 21.6387C6.39014 20.7943 5.66191 19.6275 5.36008 18.3228C5.06318 16.9905 5.22514 15.5969 5.81969 14.3683C6.41425 13.1396 7.40653 12.1478 8.63552 11.5539Z" fill="#999999"/>
<path d="M92.2336 27.0499C95.4996 27.0942 98.7656 27.0499 102.025 27.0499H111.817C117.591 27.0499 121.694 23.0891 122.329 17.909C122.96 12.8774 118.797 7.48571 113.734 7.02456C113.364 7.00823 113.003 6.90299 112.682 6.71772C112.361 6.53245 112.089 6.27259 111.889 5.96012C108.936 2.0119 104.941 0.230459 100.07 1.02326C94.931 1.86028 91.6746 5.02518 90.3006 10.0315C90.2405 10.3728 90.088 10.691 89.8596 10.9516C89.6313 11.2122 89.3359 11.4053 89.0056 11.5098C86.0144 12.6942 84.2361 14.9526 83.9518 18.1428C83.5412 23.2281 87.0883 26.9868 92.2336 27.0499ZM91.7314 14.9747C93.3897 14.7504 93.8319 14.1977 94.0656 12.0499C94.3657 9.28295 95.7712 7.23303 98.1717 5.89064C99.0842 5.37248 100.091 5.04135 101.133 4.91665C102.175 4.79195 103.231 4.87619 104.24 5.16438C105.249 5.45257 106.19 5.93897 107.009 6.59515C107.828 7.25133 108.508 8.06413 109.009 8.98606C109.748 10.3727 110.623 10.9317 112.212 10.9475C112.999 10.9486 113.779 11.1067 114.504 11.4125C115.23 11.7183 115.888 12.1658 116.438 12.7287C116.989 13.2915 117.422 13.9586 117.712 14.6908C118.002 15.423 118.144 16.2056 118.128 16.993C118.102 20.3506 115.497 22.9343 112.013 22.9943C108.709 23.0354 105.405 22.9943 102.104 22.9943C98.8035 22.9943 95.4964 22.9943 92.1957 22.9943C89.7605 22.9943 88.0517 21.415 87.9253 19.1535C87.8021 16.9962 89.3499 15.3032 91.7314 14.9842V14.9747Z" fill="#999999"/>
<path d="M104.043 96.4091C104.043 93.5853 104.043 93.6264 101.169 93.5664C100.222 93.5474 99.9689 93.8033 99.9784 94.7572C100.029 99.3434 100 103.917 100 108.519L99.7036 108.683C99.135 108.074 98.5381 107.489 98.0106 106.848C97.5494 106.289 97.2146 106.371 96.7882 106.88C96.1217 107.676 94.7825 108.285 94.8015 109.16C94.8173 109.896 96.0649 110.604 96.7471 111.324C96.7986 111.387 96.8569 111.444 96.9209 111.495C99.5488 113.317 100.37 115.784 100.061 118.955C99.7794 121.826 100.004 121.798 102.856 121.867C103.93 121.896 104.069 121.514 104.066 120.569C104.028 112.521 104.043 104.467 104.043 96.4091Z" fill="#999999"/>
<path d="M23.4145 96.7565C23.4145 93.4779 23.4145 93.5001 20.1296 93.579C19.4757 93.579 19.3304 93.7906 19.3431 94.4002C19.381 96.1311 19.3431 97.8747 19.3431 99.5993V108.927C18.506 108.077 17.8554 107.442 17.2395 106.779C16.9236 106.428 16.7057 106.336 16.2698 106.709C13.6892 108.92 13.6766 108.92 16.0203 111.264C16.1237 111.388 16.239 111.503 16.3645 111.605C18.9451 113.371 19.6684 115.796 19.3999 118.87C19.1378 121.867 19.3431 121.839 22.3121 121.88C23.2597 121.88 23.424 121.564 23.4208 120.705C23.4018 112.717 23.4145 104.751 23.4145 96.7565Z" fill="#999999"/>
<path d="M62.8019 93.5885C62.0386 93.6453 61.2721 93.6453 60.5088 93.5885C59.7918 93.5284 59.6497 93.8095 59.6592 94.4728C59.6971 96.886 59.6592 99.3023 59.6592 101.719V108.541L59.378 108.649L57.5303 106.753C57.2744 106.494 57.0533 106.201 56.6617 106.63C55.9036 107.461 54.7002 108.149 54.4507 109.097C54.2612 109.849 55.6762 110.49 56.3047 111.248C56.403 111.375 56.5177 111.489 56.6459 111.586C59.1727 113.367 59.994 115.749 59.7097 118.851C59.4254 121.952 59.6497 121.905 62.7546 121.848C63.4084 121.848 63.6642 121.709 63.6642 120.989C63.6411 112.145 63.6411 103.29 63.6642 94.4223C63.7021 93.718 63.4652 93.5442 62.8019 93.5885Z" fill="#999999"/>
<path d="M43.5505 111.725V104.606C43.5505 101.605 43.5505 101.646 40.5814 101.605C39.6559 101.605 39.4538 101.867 39.4601 102.755C39.5043 108.102 39.4822 113.453 39.4822 118.803C39.4822 121.927 39.4822 121.896 42.6408 121.867C43.4241 121.867 43.5599 121.599 43.5536 120.894C43.5347 117.84 43.5505 114.783 43.5505 111.725Z" fill="#999999"/>
</g>
<defs>
<clipPath id="clip0_27_302">
<rect width="123.62" height="122" fill="white" transform="translate(0 0.843262)"/>
</clipPath>
</defs>
</svg>
